<mxfile host="app.diagrams.net" agent="Mozilla/5.0 (Macintosh; Intel Mac OS X 10_15_7) AppleWebKit/605.1.15 (KHTML, like Gecko) Version/18.6 Safari/605.1.15" version="28.2.3">
  <diagram name="Страница — 1" id="-X-TMnOxVBcRwOt6y27l">
    <mxGraphModel dx="5046" dy="3577" grid="1" gridSize="10" guides="1" tooltips="1" connect="1" arrows="1" fold="1" page="0" pageScale="1" pageWidth="827" pageHeight="1169" math="0" shadow="0">
      <root>
        <mxCell id="0" />
        <mxCell id="1" parent="0" />
        <mxCell id="CmBNhASCnmYfiihQbVMa-1" value="" style="shape=image;verticalLabelPosition=bottom;verticalAlign=top;imageAspect=0;image=data:image/jpeg,/9j/4AAQSkZJRgABAQEBLAEsAAD/4QBYRXhpZgAASUkqAAgAAAADAJiCAgAOAAAAMgAAABoBBQABAAAAQAAAABsBBQABAAAASAAAAAAAAABDYXJsb3MgQWx2YXJleiwBAAABAAAALAEAAAEAAAD/4QUzaHR0cDovL25zLmFkb2JlLmNvbS94YXAvMS4wLwA8P3hwYWNrZXQgYmVnaW49Iu+7vyIgaWQ9Ilc1TTBNcENlaGlIenJlU3pOVGN6a2M5ZCI/Pgo8eDp4bXBtZXRhIHhtbG5zOng9ImFkb2JlOm5zOm1ldGEvIj4KCTxyZGY6UkRGIHhtbG5zOnJkZj0iaHR0cDovL3d3dy53My5vcmcvMTk5OS8wMi8yMi1yZGYtc3ludGF4LW5zIyI+CgkJPHJkZjpEZXNjcmlwdGlvbiByZGY6YWJvdXQ9IiIgeG1sbnM6cGhvdG9zaG9wPSJodHRwOi8vbnMuYWRvYmUuY29tL3Bob3Rvc2hvcC8xLjAvIiB4bWxuczpJcHRjNHhtcENvcmU9Imh0dHA6Ly9pcHRjLm9yZy9zdGQvSXB0YzR4bXBDb3JlLzEuMC94bWxucy8iICAgeG1sbnM6R2V0dHlJbWFnZXNHSUZUPSJodHRwOi8veG1wLmdldHR5aW1hZ2VzLmNvbS9naWZ0LzEuMC8iIHhtbG5zOmRjPSJodHRwOi8vcHVybC5vcmcvZGMvZWxlbWVudHMvMS4xLyIgeG1sbnM6cGx1cz0iaHR0cDovL25zLnVzZXBsdXMub3JnL2xkZi94bXAvMS4wLyIgIHhtbG5zOmlwdGNFeHQ9Imh0dHA6Ly9pcHRjLm9yZy9zdGQvSXB0YzR4bXBFeHQvMjAwOC0wMi0yOS8iIHhtbG5zOnhtcFJpZ2h0cz0iaHR0cDovL25zLmFkb2JlLmNvbS94YXAvMS4wL3JpZ2h0cy8iIGRjOlJpZ2h0cz0iQ2FybG9zIEFsdmFyZXoiIHBob3Rvc2hvcDpDcmVkaXQ9IkdldHR5IEltYWdlcyIgR2V0dHlJbWFnZXNHSUZUOkFzc2V0SUQ9IjE1NzM3Njk4NiIgeG1wUmlnaHRzOldlYlN0YXRlbWVudD0iaHR0cHM6Ly93d3cuaXN0b2NrcGhvdG8uY29tL2xlZ2FsL2xpY2Vuc2UtYWdyZWVtZW50P3V0bV9tZWRpdW09b3JnYW5pYyZhbXA7dXRtX3NvdXJjZT1nb29nbGUmYW1wO3V0bV9jYW1wYWlnbj1pcHRjdXJsIiBwbHVzOkRhdGFNaW5pbmc9Imh0dHA6Ly9ucy51c2VwbHVzLm9yZy9sZGYvdm9jYWIvRE1JLVBST0hJQklURUQtRVhDRVBUU0VBUkNIRU5HSU5FSU5ERVhJTkciID4KPGRjOmNyZWF0b3I+PHJkZjpTZXE+PHJkZjpsaT5jYXJsb3NhbHZhcmV6PC9yZGY6bGk+PC9yZGY6U2VxPjwvZGM6Y3JlYXRvcj48cGx1czpMaWNlbnNvcj48cmRmOlNlcT48cmRmOmxpIHJkZjpwYXJzZVR5cGU9J1Jlc291cmNlJz48cGx1czpMaWNlbnNvclVSTD5odHRwczovL3d3dy5pc3RvY2twaG90by5jb20vcGhvdG8vbGljZW5zZS1nbTE1NzM3Njk4Ni0/dXRtX21lZGl1bT1vcmdhbmljJmFtcDt1dG1fc291cmNlPWdvb2dsZSZhbXA7dXRtX2NhbXBhaWduPWlwdGN1cmw8L3BsdXM6TGljZW5zb3JVUkw+PC9yZGY6bGk+PC9yZGY6U2VxPjwvcGx1czpMaWNlbnNvcj4KCQk8L3JkZjpEZXNjcmlwdGlvbj4KCTwvcmRmOlJERj4KPC94OnhtcG1ldGE+Cjw/eHBhY2tldCBlbmQ9InciPz4K/+0AUlBob3Rvc2hvcCAzLjAAOEJJTQQEAAAAAAA2HAJQAA1jYXJsb3NhbHZhcmV6HAJ0AA5DYXJsb3MgQWx2YXJlehwCbgAMR2V0dHkgSW1hZ2Vz/9sAQwAKBwcIBwYKCAgICwoKCw4YEA4NDQ4dFRYRGCMfJSQiHyIhJis3LyYpNCkhIjBBMTQ5Oz4+PiUuRElDPEg3PT47/9sAQwEKCwsODQ4cEBAcOygiKDs7Ozs7Ozs7Ozs7Ozs7Ozs7Ozs7Ozs7Ozs7Ozs7Ozs7Ozs7Ozs7Ozs7Ozs7Ozs7Ozs7/8IAEQgBtAJkAwERAAIRAQMRAf/EABoAAQEAAwEBAAAAAAAAAAAAAAABAgMEBQb/xAAYAQEBAQEBAAAAAAAAAAAAAAAAAQIDBP/aAAwDAQACEAMQAAAB+yAAAIAAQAEAAIUEAIAAAACAGIKCkAABAAACAoAAABAAAAdAIUAEAAMDMgIUAhCghSAhQAQAgAIUAEIUhQCAEAKACApAAUgAAB0gAEAKQFIAQFAIACAgKCAAgAAAIDEpSkAAIUgAAAIUgAKAQEAOkAEAKQAEAIZEIAQAAAAAgIQyIAQAAAAAEAAAICmsyMgAAAQhSFOgAAApAQAAFIAQAAgAAICApSAhSAFIQAAAFIACAFIYlKCAhSgpAdBAUh5Keee1QoIUhQAAQoICFIQEBCEBAQFIUhSAEBSAAEIQhQAQAhDzTXL9OZAAh0kMjE1Hm2bY7goIWoUACgAAoAAAAAKAAAAACgAAAAAAAAAGJ8ye6UAA6SghiabMo3qAAAAAAAAAAAAAAAAAAAAAAAAAAAAAAB456AAAOgAhDnszjeoAAAAAAAAAAAAAAAAAAAAAAAAAAAAAAHjV3QAAOoEBic9m2NygAAAAAAAAAAAAAAAAAAAAAAAAAAAAAAeSdgKQA6iApic1m2NygAAAAAAAAAAAAAAAAAAAAAAAAAAAAAAeSdhQUgN4AMTms3y7gAAAAAAAAAAAAAAAAAAAAAAAAAAAAAADyTqKAAdRQDE5bN0blAAAAAAAAAAAAAAAAAAAAAAAAAAAAAAA8s6zIhQDcADE5rNsb1AAAAAAAAAAAAAAAAAAAAAAAAAAAAAAA8o6igEKbwYgxOezol3gAAAAAAAAAAAAAAAAAAAAAAAAAAAAAAHkHYCghDrMSlIctm2XcAAAAAAAAAAAAAAAAAAAAAAAAAAAAAAAeSdhQAQ6SFBic1m2XeAAAAAAAAAAAAAAAAAAAAAAAAAAAAAAAeQdRQADqKZAxOWzZLvAAAAAAAAAAAAAAAAAAAAAAAAAAAAAAAPKOwyAIZm0gBDms2S7wAAAAAAAAAAAAAAAAAAAAAAAAAAAAAADyTrKAAdJSEMTns2y7wAAAAAAAAAAAAAAAAAAAAAAAAAAAAAADyTqBQQxO4GJkDlszl3gAAAAAAAAAAAAAAAAAAAAAAAAAAAAAAh5S9iUAA6AQpic6bF3AAAAAAAAAAAAAAAAAAAAAAAAAAAAAAAHkL2pQADZA21TA0mRuAAAAAAAAAAAAAAAAAAAAAAAAAAAAAAAPGPQi1SFB0kAIaEq7gAAAAAAAAAAAAAAAAAAAAAAAAAAAAAADxD0IyoADpMiEIaULvAAAAAAAAAAAAAAAAAAAAAAAAAAAAAAAPCPQi0hVIdwABzIXeAAAAAAAAAAAAAAAAAAAAAAAAAAAAAAAeGvoxlYICnUACHPZlLuAAAAAAAAAAAAAAAAAAAAAAAAAAAAAABDwj0ZbYBAegQoMTmssu4AAAAAAAAAAAAAAAAAAAAAAAAAAAAAAA8I9aW2AQh1nOdAIclmcu4AAAAAAAAAAAAAAAAAAAAAAAAAAAAAAA8A9KW0gRMF6ExO2oYnLZsl3AAAAAAAAAAAAAAAAAAAAAAAAAAAAAAAh4B6kuVkltgsdVbAQHFZnLtAAAAAAAAAAAAAAAAAAAAAAAAAAAAAAAPBX1oyRSFZR00BCHFZtl2gAAAAAAAAAAAAAAAAAAAAAAAAAAAAAAHz56stABjZ6BSGBTis2y7gAAAAAAAAAAAAAAAAAAAAAAAAAAAAAAQ8FfXhZSAR3VCFMTgs3S7gAAAAAAAAAAAAAAAAAAAAAAAAAAAAAAQ+ePWi0Agd1UENacFdUu4AAAAAAAAAAAAAAAAAAAAAAAAAAAAAAEPnj1pcrMSlEehUAIebZ0S7QAAAAAAAAAAAAAAAAAAAAAAAAAAAAAAQ+ePbi1SAh1kBTWnn11y7QAAAAAAAAAAAAAAAAAAAAAAAAAAAAAAQ+dPWKUhAdRtAMTz7OuXaAAAAAAAAAAAAAAAAAAAAAAAAAAAAAACHz57EtskWoDsNJuBieZZ2y7QAAAAAAAAAAAAAAAAAAAAAAAAAAAAAAQ8A9WW2CkB0EMkhpOGz0JraAAAAAAAAAAAAAAAAAAAAAAAAAAAAAACHz56UudklWZFjdZuXMxhXlWd0uwAAAAAAAAAAAAAAAAAAAAAAAAAAAAAAEPCPYlqUhQZ2UgMDy69OXaAAAAAAAAAAAAAAAAAAAAAAAAAAAAAACHz565CghDqCaCrgedZ68u0AAAAAAAAAAAAAAAAAAAAAAAAAAAAAAGJ4B7EtsssJZDrNZrNiYHlV60u0AAAAAAAAAAAAAAAAAAAAAAAAAAAAAAGJ4J6stRQEjZUMzBMDy69qXaAAAAAAAAAAAAAAAAAAAAAAAAAAAAAADE+ePVltgCMTI31mDQnlV7Uu0AAAAAAAAAAAAAAAAAAAAAAAAAAAAAAGJ4J68tKkWg5LLG6sjWnl17ku0AAAAAAAAAAAAAAAAAAAAAAAAAAAAAAGB8+erKspAU1RDZW0wPnrPp5dwAAAAAAAAAAAAAAAAAAAAAAAAAAAAAANR8uv0kZAAhzIN5nWk+YOGX0LAICgAFAIQQBFAIWFAAAAABkChAWAgMSGuzJ597vnWcefW7OqCgAhwnYfVGSKsSkcpTcY1IwrjjMyIQpAQyIZAGtc0AAoABQAChSRakKohUVJcQUwNJDE1mg0Fl2Gyt6U2m02AxKQ3G1LViFqmEDYbSmNaYyKUpCEoQzMgCgEBiZFBCgAhSFAAIAAUgBDE1g1GuNK4mZsMjYZlMjIpADKykKQHNAzMwKsQlCgoAMgUgBQCFAAAAKAAADEoAABFiawazGMFxKbDIpkZ2UCC0GNgAgOeMigoKZgUiGZS1kajAkKCIKR0UAMSGYBCkhVBClKQxAIuSIiwWYmqIRYUpSmRTIApQYGozIawZJF2pmUxqwIWqSMqFBSFIAUFBCFBrNhDIAAhiUpAAACkIsIkIQxXKFSKUFBSApDEwKQhrKZGaDAyKZFoCwqAoIUpDIpAAUAhQQGQBSGIIQoKCGRCEMIqwAtSICFKCkMyGJqMTEyNJtP/8QAKhAAAQMCBQQCAwEBAQAAAAAAAAECEQMSBBMUITMQIDJQIjEFMEBBYCP/2gAIAQEAAQUC/wCZn5ernuknpJJP8MdY/q2NjbuhCE/4P/f6noqsT125uR3QR/FBBBArZLSCCCCCFIXsjsTpJj8Y7Cswv5WpWq6lDVNNS01LTUtNS01KGpQ1KGoaahpqGmoaahDUIahDUIahDUIahDUoalDUoalpqWmqaappq2mraaxprGmsaatprGmraatpq0NWhq0NWhq0NWhqjVGqNUas1RqjVKapTVONU41LzUvNS81LzU1DU1TU1TU1TUVjF4vFU2YLH4irWRV/U5THYZazMJhKNKjlsMthlsMthlsMthlsMthYwsYWNLGljS1pa0tQtaWoWoQhCEIQhCEIQhCEIQhCEIR/e5Ec3C4VlKpJJJJPbAqb1uOjw+/oeW3ZJt3VuKjw+/o/f66/FR4ff0U6b9dyF7JJK/FR4ff0fpFJJJJJ7q/FR4ff0vrtnur8VHh9/R8f11+Kjw+/peKfonaSSuv/AJ0eH39H6jtjuxHFR4ff0SSSSSSe6vx0eD39Lx7oUjrBX8KPB7+imyIWoQhCFqd9fwo8Hv6Pj+qSv4UeD39HxhTc3NzcleqL1r+FHh9/Q+pJJJJJ6z1reNHh9/Q+u7JQy0QRsJBahVTajw+/oblqFqFqFrSEITuqfVHh9/h+/frv0q+NHh9/hz5HzPkQ8+R8u2St40eH3+GLlLlLlLlLlLl7qvjR4ff4bvhCOsFfxo8Pv8MIpsbGx8SG9HutXrX8aXD7/DdyyOxFNg6nRxBHWv40uH3+G3Ea4tUtcWqWqWjmNd24nxpcPv8AClxcpcXqXF3difGlw+/w3fHT7EYK0xKQylw+/wAKWoWIWIWIWNLG9qmK8KXF7/Ckkkkkk9n+qpiV+NLi9/hdyHFri1xa4tUtf2yYzwpcXv8ACLujoMxS4zFMwzFJJJJFUxfhS4vf4T77sp0wWFhloYxqI2lxe+/zCIWKZZYplmWWFwrnlxcK4xiyynxe+X6wpJJJJKkirsm6kiu3xfhT4vfL9YYk3NzchSHGWJ9z0VUMcqWU+L3y/WEURxmFxmGYZnSSeiqYzxp8Xvl+sL37ikumVFuMXdbT4vfL9YVJE2NusIWoXIbKNtuuFcpjFltPi98v1hSekkkkr0+xGQkoKpi1+NPi98v1h1hZJJJJJEa3rCDmtMYiIlPi98vjhBFaXIXNJQuQuTojlQkkVTF/VPj987xw3fC9GlrhWOPyFdKNSi5H0ffVHIyngqyVajaZYZZlwWIZZcp9jVgvUc5T8lh6lWphnV6CZ9cz65n1zUVjUVjUVjPrmfWM+uZ9cz6xqKxqKxqKxqKpqKxn1jPrGfXM+uZ9Yz6xn1jUVjPrGfXM+uZ9cz65n1zPrmfXM+saisaisaiuaisaisamsamsamsamsamsamsamuamuaqsausLja6CfkayC/k1hn5NqI78mxWrj6l2prKaiuaiuZ9cz65n1zPrmorGIWvXTAUKlN7V2kkklSeiL0uQuQckitai2tLELEMtDKgtYQw+BawtapYhlliFsusLCwsQtQtQsQsLCwtQtQtQtQtQsLCwyzLLULULUIQtQtaQ0VEMssRBUQsLELBWoLTk06CYYsgRpaWkKIWForJLUIQSCS4kuJJMumWoMXaUPibC06cw0hp8TY2Fa02IaWtIIQtQhDY2IQhpDTYhCEIQhCGkIQ0hpBCEIQhCd+xsbFqEIQ0hpDS1JsQVrRUIIEQsaIwtLS0367GxsbGxsfE2Nus9n+fxTP6Z3/Rv+tesEEdiL+6FIEaiG6kPIcJJuQpapa4h5a4tcWOLRUUgtcWvLXFillUyqolGsJSMpxluMtS1S1S0ggy98txlvMt8wQQWkKfI+Ra4sUseWKpluMt5Y8scQK1VLHFiljhGKWKWKWOLFMuTJUyzKLCEILEMsVkGWLSUsky3E9EJ6ST1knpJcXKXqXKXKXKXKSSSpKlylyqSpv1R/yklSVLl6SpPSFI7Z6qu8kkk/tkntkkkklI6oKJPSe1P45/bPan32Kvb/nWeqdy9G9F5T//xAAgEQEBAAIBAwUAAAAAAAAAAAARAAFgEDBwgCAjQJCg/9oACAEDAQE/AfIhmZmZmZmZnlmZmZmZmZmZnl3XOm503Om503PefOm5+93HfPP5IDgiI9JEREdA+CdD3fOP/8QAHhEAAwEAAgIDAAAAAAAAAAAAAAERYBAwgJAgQHD/2gAIAQIBAT8B8iIQhCEIQhCEIQhCEIQhCEIQhCEIQhCEIQhCEIQnEIQhOYQn1FjVjVjVjVjVjVjVjVjVjVjVjVjVjV6G1jVjVjVjVjVgX2LGrAvsWBfYsasasC/xp41+Gjxrzd4pSlL8qUpS+gT/xAAxEAABAwEGBAUEAgMBAAAAAAAAAQIxMhARICFgkTBBcXIDEjNQoSJRYYFAokJw4ZL/2gAIAQEABj8C0z5f9mORs3ZaP5/wm+RqKrvueV7G3fggpUggggggggggggggggghSFIUhSFIUhSFIUpUpUpUpUpUpUpUpUpUpUpUpUpKCgoKCgoKCgoKCgoKCgoKCgoPT+D0/g9P4EcxFb9/pPI9b0X8cPIT6rrhtzEV12alCbFDdihuxQ3YobsUN2KE2KE2KU2KU2KU2KU2KUKUIQhCEIQhCCCCCCCCCCPYlasKeZFXLiKN6aAd14ijemgF4ijemgF68RRnTRrOmgP3xWdNGs6aJggggZ00azpoaMbOmhoJxM7dGs7dFxYzt0HFkEY2dujWdugFx1O/9HNf2ZYGdugF4rO3QC8VnboBSCCCCDljZ26AXis7dALxEGdugFs5W8jlZ+owIM7dALiyPqW4RzkvTlgQZ26AW2LeR9TUXCgzt0AvEQZ26AXHNtSrYgzt0ApBCEEIQhCYkGdNALxEGdNAKQQQRZyxN6jOmgFw8sbRnTQDsfqrdg57jRnTQC2QlkIQU2ZJzwNG9NALhmycGWY0b00ApC7FKkLsUrsQpBN+Fo3poBbIsggjE0b00AuODI5WtvG9NALwV/BCWNG9Pf1FxTZkfczWxo3p7+ouPNTJLOVjbhvT39RbIIIIIxNG9Pf1F4XI5DfDVL8rxitW9Lvf3OctyIgrUvJJJJOZNuVqeI3PK4Vt7kT7Xkv3JfuS/cqfuVP3JeS8l5LyXkvJeS8l5U8qeVPKnlTyp5W8reVvK3lbyt5W8reVvK3lb9yt+5W/crfuVv3K3lbyp5U8qeVPK3lbyt5W8reeo49RxW4qU/yPr86/s+lHovU9R25W8qeVPKnlXiE+IS8qeIn1KeZ2ScKSbJQlMMoVIZOQlMN2eGeDJOGD/h/zHGGLKbz7EXkXW89jnsQuxCkKfaznghbIU5maIZXIQQlubWqvQjDmQlkfw8uJBFsEEWxw4IIIsgiyPZbuDlwl/lX8zI5EpgkqQlNipCpNipNiSorUy8T4PU/qep8Fa3nqf1PVz6Gfjf1JW/7lSlSlXwVfBV8FRJUpf58ysrM3/BzskmybJJKvgzcVE4ZKiSokqJM1WyoldyXbn+W5z3OZz3KlM/E+StT1Pky8Rdz1F348kkkk4ZWySSbbrl64Jwz7VOhf3Y1Pwtn/xAArEAACAQEGBQQDAQEAAAAAAAAAAREhEDFBUWGRIHGhsfFQYIHwMMHR4UD/2gAIAQEAAT8h/BJJJImNkkkkkkkjZJJJJJJLJJ4ZJtkvIhRM8ckkkk2SST+WSSeCeDH8SWeKJH+emfHJJJJNjMOJ8cwQJ4JtJsQEj/0ngkkkkkjUjgghECEUITJCEkriEQQQQUKWUsn8VChCIyEZCBCKWwrahIoUKFLKFLKFChKJJKFOCEQuCg6KShQp+BX2XC4n/wAidS/63UQ7LmGcVp+Fy1wTbPApm34Pi2CCLYIIIIIIIIZBBDIK6EaCNFiCCCCLSCLIIZDIZBDI1IIIIIII4QReFHHcc7sczJZkszUsEiCEQIJJKqkjDXaz0KCC3CZka/ewNSak1prTXmrNWa01JrTWmqNUao1RrzX/APLzMzUXNqquJkY3eWNbuajcjm3I5tyPkc7c+kn2kn5H1PiRUn1I+pM+tM+1M+hj6mG7FuFiGaql1FNNTRAwqnzZNk8DcD00rzKSoXhnAw2yTVLfApCPCDwg8IPCuIVrOV4Q8QeKPDHgjwx4Y02xptjSbGk2NJsaTY0mxpNjQbGgNBGgiGSIWSIWRCyIWRCII/6EoyiGh5atmq7CSP8ACBAhYkjnbqEtG8C9SdC9gdQ7kiUSiUQJ4TO0OhewOvff8MkjejOyOh+wL5q7sSIEMhkaTkkkidhh+kdB9gNVzfdjMyRLMkSJW3EjdRk3Og+wL7m7sRKJJSJICWhUggaRGXNHQfYF5zfdiazJRKJRKJRJJJIy+5o6b7Abr/vGnRk6DZSk9ESiZIbzEhjrhVHTfYFbc/6IQyCGQyRJe7KDaK/kjovsB6MWk5DkOQ5Ced2K1ncOl+wL77mLgkrYiiQQhhI+Z0rt7Amb7mJORbWiQlws76OldvYF4ImySbIds6Dabw1FMTpXb2BffH7FkEZCAjIUYjUkkkmDqSSkVJzOndvYDQ/wJ8lZnkiZPInkrarGVLzOjdvYDT8AuKTD5MYStrEQB2KJDonb2AvQFj9z6yfWT6SfeTRVk24F2dE7ewG7BXcUPfCIIHkRDxEhDonb2BKIqbhfdkJgZ95NAR5yMpknQknQ5BqeZ0Tt7AbtFBR29r8fMuuZ0Dt7A/SJMgh8CQXqMhkDCRzjoHb2A/YIzJCcyJ0FWInwayszKT9lrH3jpHb2Be+AuF0Yfq/5oYQUqqpOe4oJJYDGx9w6R29gK2gZBbmktzQbmmtx5a3E2I6mCISUJRa6HUHSO3sB42CdLAmyJrI5BLF9COXCzqzpHb193D1C4ucJRjPOxE5fNMS89xd9vxZ0jt6+7i+FkHzdjaLckvso82SOpTKxht06L29fdw1QuICdhVRMsrIhdzJ+edF7evu4R0BeaZyL5IM/yLyzTW5yBI62UGmQ0g6L29fdzKFoQjQQjoIlkORwgqR9w6L29fdzL1ysmySbEubbkhfwcaKrzYs7ZHN7leX1BzKb8Tovb193ialCdhTUkGmS/wACXifaCWIs1K00wuqSJDE7xsjM6X29fvB4cBPmyebJ5snmzWEsxKZwFcrwVBuMCOZLBHqQ+BFTpfb1+85GgxNF/wDI+xEiJv8AtHhjWl4ma0EMWSpzEsxiHNnS+3r95yIihLOwSuw+skfMm0mybeZ0vt6/e8i+IsSm2SMQSlVdRraac8djl7Ds6RsIlLidL7ev3/IlX/hkEv3IYiCjJszWZJoNsrO4zUXUaAnYbD5Gp0vt6/0xQ/iJsySWdiWbNQSOVhvkpbcsSOnRFTN5NQi86X29f6YWhmJPqIa7ENdiGuxHXYisXsXF25RUnWgnQbLwi4XUkInfcdL7ev8ASDJOehknYtQZdjZYmC4GKditfI/WOn9vX+gL5V3DJyxqMZ5DN0VRPGaDwTXi+6CqjFhr19dCoNiYk1GtXyGYruYeIxrbiedbHINdHoMXAa9iTqkUyuNECAnXbo8qPMiK/dCd/UeXZ5tnn2ebZ5tnn2eXZ5cav7nnGeXZ59nn2ebZ5tnnWedZ51ib/dnlWeRZ5FnmWeZZ5tnmx5sefHlx5ceTZ5Vnn2eXZ5dnk2ecZN/Y88eSZ5Jnnzyww68mIvMYoi4zZAEdN6ZDYswNxihaCWlNT1PPs+uzzrPKM8szy7Gq/dKStO5sf00IQ3ETzZPMnmajJZuypR7GE4EeHclwbiEhn7YCuepb6diQFSK2UkM9wh6SXqeSFcGrKBEQSi2ESJDM1EaY1lYQICpUo1jXRrIzUE25GQIkSp3dCGbYrRD3HO3HN2Kc12OfsfSD7QNqFLfIjkIFxAonsQxnY0HsNQsI/kGx0b+AxS3BgK46Ro9BLk9hIndvCyAWaOYfWiP+BKUSk3wPIexpbB0wexFK5nK/iwcjKw5dg23rmiK6DFLYyS+fVHKthp6IuVWLEDpVoiS/qQuBlggMXtkRdpcjTS+CvRRJj0NZmqzXZA5LUaMCMvThUtRnNOYc8jNHCRQs2RqQVwIreQjktCQeXwGyVoQ79pWAnIdVhLvRpQJm8UMRD4CSHwKZCMg5BGS2uWwnISZJEuLUkk2JL5DTVkcSyLiSSSSXbiQa78MVmxMcU2vIEnirJtm1imRVcNDVqglZd+Qkkkqk8zuFZNdOZD+hDYp2F9QS2L/UKxPGk1mgo5/iyZsHknOdna+TNVa6KE+ERqnMKLlzWiDooJ4FHiDVBpxBNd0S1/BzdjTsCizyaipcNt3QaLYS5SrJCSxE3i/gmJZyC5lOAc8ST/J96GAsQrkZHQanYjxkzGTSgUQnA/DPuQ8LpMS7+DXmusKdehpja1Fm38kxJkSGMhpBHyJCc7lfJizYKa/ciJMl8BPO55IeAEmrGgWonJN/olmSd7J1JeZInnUcskqITLGyao15rrJqEneJjWZ5wix3HlnI1xOZuS82S82SQXWGnIkaglYkgTZqE8yZJMCTFBXlMD5PkmxOpJKiZoZLMkSJ4GJzwSS2TYkS7JwsYg3UhhcMNFN7JFY1BoQzXs9CRNHBI0uPwTYvwMm3XDgVs1sUxfa2NrFV21F38EDXMdruExJJJIkkqUkjblWu0zadcXex3UUbuxB//9oADAMBAAIAAwAAABAAAASACSCSSQCASAQAASCQQSAASSSCSSQAACSQSCSQCAAQQQASCQAQACASAQSCQQAQCACSSCASSAAACQQQSCQSQCCCCQCSSAAACCACSQQACSAQSSAAASAASASAQAAQCAAAQAACCASSSSAASAACQCCSAASCCQQAAQSSQQCSASQAQSQSQSQSQAAQSQSQCSCCAQCCCBtaDCACASSCAQSSQASKCmwQm0km2/8AZJroEEkEAhf2+YSkAkkAAkkkkAAkkkkAAAAAAAAAAAUAAgEAHAAAAAAAAAAAAAAAAAAAAAAAAAAAAAAAGAAAAEA4AAAAAAAAAAAAAAAAAAAAAAAAAAAAAAAEkkgEE3kkkkkkkkkkkkkkkkkkkkkkkkkkkkkkkiEEAkgkckkkkkkkkkkkkkkkkkkkkkkkkkkkkkkk0kEkkAiAAAAAAAAAAAAAAAAAAAAAAAAAAAAAAADgkAgAlYAAAAAAAAAAAAAAAAAAAAAAAAAAAAAAAsEAEgEHAAAAAAAAAAAAAAAAAAAAAAAAAAAAAAAFAAgkkgwAAAAAAAAAAAAAAAAAAAAAAAAAAAAAAA8gAEAACkkkkkkkkkkkkkkkkkkkkkkkkkkkkkkkngkEgAl0kkkkkkkkkkkkkkkkkkkkkkkkkkkkkkk9NJMAgukkkkkkkkkkkkkkkkkkkkkkkkkkkkkkkjgAgkkhQAAAAAAAAAAAAAAAAAAAAAAAAAAAAAAAplEEEggAAAAAAAAAAAAAAAAAAAAAAAAAAAAAAAFtJNgkBAAAAAAAAAAAAAAAAAAAAAAAAAAAAAAAElkkkkE6kkkkkkkkkkkkkkkkkkkkkkkkkkkkkkkgJJJWgmAAAAAAAAAAAAAAAAAAAAAAAAAAAAAAAAvhgggA4AAAAAAAAAAAAAAAAAAAAAAAAAAAAAAAH5JJgknwAAAAAAAAAAAAAAAAAAAAAAAAAAAAAAALrpoAg8AAAAAAAAAAAAAAAAAAAAAAAAAAAAAAAExtpAEFAAAAAAAAAAAAAAAAAAAAAAAAAAAAAAAEeJNogEMkkkkkkkkkkkkkkkkkkkkkkkkkkkkkkkFRppAgFAAAAAAAAAAAAAAAAAAAAAAAAAAAAAAAAKC324kAAAAAAAAAAAAAAAAAAAAAAAAAAAAAAAAnVVPgEAEkkkkkkkkkkkkkkkkkkkkkkkkkkkkkkkmddYAggkkkkkkkkkkkkkkkkkkkkkkkkkkkkkkkFWSRkEggAAAAAAAAAAAAAAAAAAAAAAAAAAAAAAECpt4Ag0AAAAAAAAAAAAAAAAAAAAAAAAAAAAAAAn9tbkAKgAAAAAAAAAAAAAAAAAAAAAAAAAAAAAAAKNp4kggkkkkkkkkkkkkkkkkkkkkkkkkkkkkkkkl5NtEkqkkkkkkkkkkkkkkkkkkkkkkkkkkkkkkkkNJJIAkAAAAAAAAAAAAAAAAAAAAAAAAAAAAAAAAFx5tggGAAAAAAAAAAAAAAAAAAAAAAAAAAAAAAAAetNIl/8kkkkkkkkkkkkkkkkkkkkkkkkkkkkkkkh1VvIikEkkkkkkkkkkkkkkkkkkkkkkkkkkkkkkkO77dNN0kkkkkkkkkkkkkkkkkkkkkkkkkkkkkkkFNptlokgAAAAAAAAAAAAAAAAAAAAAAAAAAAAAAEeq1ogtwAAAAAAAAAAAAAAAAAAAAAAAAAAAAAAADzNLkjeAAAAAAAAAAAAAAAAAAAAAAAAAAAAAAAA+pr+EBkAAAAAAAAAAAAAAAAAAAAAAAAAAAAAAAH2e2GgMgAAAAAAAAAAAAAAAAAAAAAAAAAAAAAAEKptKYEIkkkkkkkkkkkkkkkkkkkkkkkkkkkkkkkgSWWT0m1khttpIpbe2+222wiWyyfSUAFbPuWSSSS9dfemHL7/Jff6f8A+/222/11+tuckpJBLnDSkigPW6W99P233IQABBBABAAJKSSSbabSbSfpgAkkssSTS3+y3SaSZIJYUKTaSaSbbaSaSTYaa1sF9bekqaba+2//AF9uiFmv3m00y0lm2kkmkV7U/wCWyeSS222yRH/rfJdpolhIkApNBJJNtJJpttkJJim2yy2WR0MA/f7JLNpNppXK9tptJpJptptptPWSm22Sy2wBBP8A/8QAIhEAAwEBAAIBBAMAAAAAAAAAAAERYDAQMSAhQEFwUGGA/9oACAEDAQE/EP8AQ97gAFL9kAACl8KUpSlKUpSlKUpSlKUpS+KfUXVntEIQhCIhCEwXoL1gF09BesAunoL1jS9Y0sAujF6wC6MXrALqWAXT0FgF0YsAujwK6MWAXRiwC6PAofN4Fesasah4xdHgV8JweBXR4I+bwK+c+LwK6PArGl0eBQ+bwK6PAro8CujwK6PAro8CujwK6PAofN4FdHgV0eBXT84FY1Y1dPeBS8QniE+SIyeEK+AhCE+YEIQhCE8IQhCEIQhCEIQhPCEIQhBpoSu0Vh9fC/shCEIQhCfwlKUv2V4Uv7Fv7P8A/8QAIhEAAwADAAICAgMAAAAAAAAAAAERMDFgECBQcCFAQVGA/9oACAECAQE/EP8AQyRPjoAAAAAABPYEREQQQREREREREOLL/QeysrKysrKUpSlKUvz2w98A8mw98A9ZNx74B5Nh74B5Nh74B5T3wDybD3wDybD3wDynvgHlPgHlPfAPKe+AeU+AeU+AeRD3wDyIfAPIuBYsaHvgHkQ+AeRcC8mw+AeU+AfvTfCnxp8af00H9zgfGnzIuBeRcaXGlwLyLgXhXlcC8i40uNaXAvxS+KX2/gvhSCCCPClRSopBBHkpSlKUpSlKUpSlKUpSoqKVFKUpSoqPwyLxPEKilKUpSl95+/P24T7CnmfAT6v/AP/EACsQAAMAAQMCBQQDAQEBAAAAAAABESExQVFhcRCBkfDxobHB0VBg4SAwQP/aAAgBAQABPxC+FyaITGyl8Ts8FNdToGgb8D6S+DtE/B2EZg0RFdPDfQsofIVyVyUrKysrwUo42GrzhCjpG7/wV4E2VlfQbKyiiiihNzUrkrwUr5YndfClKVlfhkrG1hXJXJepXyV8lFEUqnSzHYvjRvwnhsP5nT4lmo2fFeO4x6oS5GsYJjwbrKpqhvcgmnoyD8KUgackck8ncLLGxsJTUaFKx1k6iN4T8yTc1I1sx1LOCvhwr2Y95HUQlZHwJF6M7WRwyPC0OoJLlbYNfcStwZSoaJksaLUnknkTrLbwQhENeX6idu/U7nqKF/JGbW6MZk6urhTg0IldTsEdBp7YlImTuReSMco7kVLdHci9UVvGBpIiJ28cFXJeSG2OVI6T0Ok9DoL0OivQw4IuhEMmx5RHZC0xeQlt8FFQ22pdhV4l4eBBA2KMbowRHcOhRJGDBGMyLFRUtMjQSDST1L1/6Z0tkjXA4k0Rg20tS5L4sptTLpohu/8Aglmj1Kbf8akQ9S1miTnr+h/807+C/wCaXwtbNxNsZSlKUohgzFkZYz3GVmmtLoUvjSlKUEmvMWEMomS8cNUV8MzwyvhiMzaiEpkd4K5qFeVpnhkfBXBW+RZpvYao0Vcv08FcFF8FcFcFGYobs6iEy1abGp1C6gblloJt3eyEib2IIIK2aK5NWp3neTwPoHZ9DqL0K5XodRehQ72Kc5ZHBPBPBI16kPk855xZC1ZKZqcErjzgm/0K5G7/AAQaN/0PbXgOohq1jJ6jcpDuEoyHkRkdn0I4ELYRCqtxi4Uuq3FK1WmeO7YpV+UhB/kRi/Kj5tGT86HDHro+XRh/Kj5dCd+1DV/iexRwfRLf5CaLQD+PH8ae/Ry/SPbI5fpD+OJa/ROP6A1/4kv8xq/zPeL9nvEe8R7xHzaH/ooUs07o+SR8sj5w+U8aObFj2ux7x+jj9jsdZ79h8fY7Ec/bsVz9ux2Ht0HtfW/Q/nMfvMjf2On9GdP6M6H1D44NGgMhuMnA4bQ9iUgDJiQmLGBgKmiMyVuOxZMVsVrcrkbcw6Vz41RwWGCZONhjKCNOq2/QRBkjsNZy9F0PiR8RPiP6PcX4PdX4PcX4Pc34EnT0R8eErT0x8YJ/qHwcn+mfBT46fFT4wfCD4sfFj4cfDj4UfCj4UfCj4gfEHxR8EfDHxx0nodJ6HQeh0F6EcIjhEXCIuERcEXH/AMiQLphVNMT9FKGpXw4EN3qO96HWfoS59GS92u6I5QlXLuJPgdaNabWdTWyuZhi9qn3R7Nx/QGSpv92KX+HfO+jvj4Wd7wvhR8jzvfcj2bj+gP7/AHidRXdPBt7LxyOrVErW+hm8J+g+/iLzKZ+5HsnH9AwJ3GZP8OJeqFu/Ye39jiXgXaNxm7G2wy6jHk3+5HvHH9AekoyDUdU6g6p1DqFXgogwmqxYp3K+6PeOP6AsaA+NGNTly9hBqVuCVyO36jQ8tLuNWiDXBepW/wByd4JPKRiVrwdUe8cf0BEmNwibUzrM6zOszrf9QPR/Ybo9n4/oGR3/AHDYKylKUupLvNSDfkX9jXC2KRrtnKOSxbwZUxHkfdHs/H9ASFq5fcMSibHYT9hyx4dd36mWqLRJPBFuJpyJPcZey1R7/wAIpSlKUpSlKUpSlKUpSlKUpSlKUpSlKUpSlKUpSlKUpSlKUpSlKUpSkn9fyzFlCR2hrwJ+Q0PC3Ka/fhqb5fjqF78Puj2Phf0Bkmdc+ouFK9oNtEEfmu4oaiTLr5YkePCZdSQm9n3R7jw/oGZaY+4bWqK6piWkRzRm/NQkIsDd18aajJc7S9T2Hh/QGq05pp5j4K5Kd3hot1TzJNh9mNrhmMSbMzKK890ew8P6BmiAhy8x9JOqFyPoP5qGsFHyof6fgYwm1Ko2uCZoMzrE2fdHtPD+gMeSTu7zJArdLwDkS8jgT/hEj4dxkY+RYFrGPNGPucClKUpSlKUpSlKUpSlKUpSlKUpSlKUpSlKUpSlKUpSlKUpSlKUpSlKPS4f2s0+EfhDJMtDt+wTpZSNtiXfIqqSXDEOpjYs2Xl/cQwscqa5R7Lw/oC0R6LnNmT5Pzc28+v8AZ12vOJWn3CX18378MpwpTOo26XUWqfJ7Lw/oH1v2MfDcrZXvkTcM7NeZWt0JSp0bWStDDYZpodTgZHMXeHsvD+gVyav9GKyiVdx+IHCcft2NxI6U6b27HTO7f6E8yvCurHcvZBwxWSmD+p7Lw/oEVDj/AFYnCZ2FvNeg4YaT6o6Z+SFvNeh1l6FKt/HUNqj23h/QEbbL2yQaFcC3U2NPg0I+BJEnO4+J6SmbLq7DSV4SFLOfURiQe28P596Cm80tX0ZHGnqb7fohLT1C2790mPdp0Y3r3Tn6L1GsfIaPLdh+SvqV8jdUY+RhffeH8+9BhPEYeX4W4Y0tiF0QXjqRNyXqxPGSx9wKbF0IaSSRLoUtUMuE2Sqj77w/n3ozCLE1ZXLLkYc+T/ge1D34FosSDw9+X8C6wr1EaUHSTgkyCJRJLQqXLLjTI62VsfT0PsvD+fejKilEgmP0Hgqu6KafQLUQnwkJrd5CaaTTwylKOhoX2Xh/P6nYlR8D4E20ZbK1oOjt0Lb0O0F2qa0NJHqrcpzAzoQSJ9EhvW/KyGim9nIz2Xh/P6nYhoxsNq1MU51oY711XYh7J82klj6aP9PwEWL+5EUScLoNzCY+rI/K8n3vh/P6nYhbeGLQ4r7inYx01HyI4MG3HhW3ohsieugoEk8POBuhurZQc24OjFL729D3vh/P6vYZKvFH1h72Car3SxY1VvEQ09KXLUm7abLUN2U08Nsz2GCiE02FHI5FxqZfY9j4fz/0w5LPRHqMqo+Uymz3KZaSe0HaLuw/bHtIaJYp3CXkiclVKi3q6/sex8P5/wCmHT6RPuVJLOvUiaoxLZ5iXkfaXqvBAjIWb6QUy8+5VZZ2ZfYbvcXmNFzdRm1p1PY+H8/9IxrwN4xRLGjboaRNy3VIWup6KDXlMb2SEdnkhfH37CQt/UiuY3DaOG9dJkfQKPUwwXNc/se/8P59vQY2k1poz/bE1FLuzl9ZkHVbuxs/YdUYKCV1EBWiugZdwW5BVou7L6ItciGJLZqw1Nj3/h/P/Vh2sWaaJsRpKdGfgSjR846Sr6MzSfOF9xN0pwxb/MtU3XiaIiIpWGJeezMwd7cyxX/g2UxevQkl3Nd8I9/4fz/14o8mSrgjn6jTSTqQnLfmQtw6gPuMCDWSg3P7Ej3/AIFKUpSlKUpSlKUpSlKUpSlKUpSlKUpSlKUpSlKUpSlKUpSlKUpSlKP6odpa6CwquRuDEz5ZGpqXsStXBX0F3oxQjsYXoKbD0Rts+uz1FHFLms/UREzPn5Ftw3EU46nu/D+f+pfYVY1k2ORFVXmHqNeglyrQ2rVND3qLyPmRozVuZoVLZahSNryONJ7pLnEMNEltBJMFeyw4iS2R7vw/n/qn2GcTa+Xhl6pu9DnZ92NnlsnhIXc+YGvKExBfQJa3S0xvtFNcMJwTSY2ox16mFvB7Pw/n/rn2HQbTiYbOs9X6PcYXzv6H8yP5Eb0aO7/oUSZTVp4+4m9KckY+o7CTo2nDBro1peiTe6PHmkZ9TKOx7Lw/n/rP2IivyGFn6QlXPpoU18qDW1SdRK1eeR2HyE3+jhDgaic7mjFZToNT3Loe08P5/wCr/Yl06ZuUNwKUpToKboJeN36NDJ6fotDYk7tlLiOuTZOL0stqaisd8VPH8+zGxsRLBiZ7dSNJ/wCiO01c4/Q9JvfSCbDt6maDz8/Rm1HtUX2HXPTT9ToegUeI0OrRegt41qkjpvRFLz9DOfAEyjbv1LWt1MpJ7uITVpcrwKIamPRDuDSJgJvi031RkbTWfBHFueoMo1Lmy51P/AuGiiskqklXsupf/wAKuuOOWEEa9V0F4uODI+hr4cVDwjhoEWm9afIh7AjUiPkI9n1YqpT6jX7LmG1Ijf4EBW0rcLvMDzlskyRYk7+o8sGo2inb3Bkod20X5F1YKmmyW0Mv+0LxswolrPkHU9REhum2mrzkz16i1tv4EUVHywq2vUfL9Ru1d5jvlnmegnTtrWtBPfgeqT5B4CZ2DejDIRqb2aHPHEFdGjDmC9tJNNRKVpvshZRSasiaG1UU+JWmWhjkgncApWdSyqafmJqqTfRajSzhjZGibdlfUzTCZLdHOi7kP2CpMvc68LYaPbBywvoPTskVIvKI+TOCHcjoe7QnvamddFd0R3QkfLSWo4PIdiXqPs2IrK9zoNOsef8AQ1Nk6J3+BMSbjo3HyP1/ofI/X+iKWNrJuvPykQE0S2ioqyr5sbMp5mLY1OsU0ZvqoMGovQx77ick2esbv8Cqkvob7ruacRbVbh9Y9aSCU37tBFSqXLfoS/khsnkhIujARttS4ENzswr59aI0ktdXQsQvuiFizXcSlfQ0Eqy8miWvoJW/AiHo7sPu5gsXZklhv6CNRNqvUXc1ftHgXJXbE01r2g1oBiDn0MolTKnQolJvZELnX0SE94vLA6Y+olVErorPek1HkJbcega6ea3aGlagts/Upq99kcd+yEtZbfVkfVJ1KPRLyOS+iFWrPQWzFC3G0uIcLfoV3focLndFtWd0LX0djlryKZ+wrDEt3Brw073O6dd+hDf6HbOINNmXYSyuvqxpnmK8r8hpe/kTU2I7y3qNfMJvdLiiLitcjhuHsV3HumBjIRRF1K6kb7GbIH1FiYE26MEhrhiatTdBHBvNCUwr6FVau0E+y9Rok9TP+rJOad2PZ7glRKtn1Fzb1G5xHYdau/MXYG1Yx7kNn6lGG4m0km0TeWYaYOhjdHmyk2Gm6T0aepnZGWrb8xKbEIyeFN9Q08PsJ/bL5NVFlUtRbiTfYT8FyrXAri0ONGmqE70KXG5roImSGostBt7ZFMKLwwilOwbuo30FZpVzl6JI1YaEXUbxdCxcI6CjYw7TwqsjJN01ZuFB0ZPQh0JC0FhcwQ3LngTFTzGzXcUgxubepS50f/ApEwtXwQidt+gnevkM2hvqoJzi6gapu6M/Yymkref6ERRNpcMbBNLmCfx80Symdl+wsTP6PuJmqOz/ALEtj2O4t/yG/Y7Jo3SILPDKbJGRFdkn+CGI9huLrl2fsyOr7M9KPRBxgfoE1sXgvyWddwteguJjVK31M6y2rTPlIPd9x0I6ecv6N9ta3gSZe/SOjeL23FKvFsv9nC3YZYQfUubimwSbrrt6DjM5riVbiPpGpzbUU8xWJsfVJL7CZyro3+DvE/qv0K0d+Mfo0SX3FlcPX9i5YvOpm2ew6t91EFbS7BKq8EIprtbYjTo7y/oa2U7kh8L0SFOJvqy0HatRppYLsG9RtOwhsFtFE8uO1Ff1L9CXzdUv0dSvJDhTE7FF9hBlhaI3j0EtEurr8k1mvRjIeXl+BVawNbgLW9Oi7iS9i1NQ+hRqPax8f4DkNZV3voJYF2PwZTND0H0JYfmfoHMbqQpq02+EORPjQbvg9kpfoNJGS1zjuNhB6hZjmmN25i52+7FSdpRH15rDCGGI7I3E3qOH5hL09QSI3643vLeo2bzeU11QhovOIhorsxKU+sFE07m2SJ1ZOMPsYJj4pbX1R8kfNDKoqbaEeMHznYbNde8GzdEJInQ8Zs/MTWWyWUyZutxbjY0s6Eb44ESddaNopXcXd3ZZuOV9TRE2uqK0r1EydTyNeMJbKJDZJLzDPa9R01Y+QbyUbfI2+WOvVltN0fS4JyTIl3FOw9c2J+WVNRcjNbP+kXmaOA2KQ8IplmkohcjyuB0zTlVykdplHuLUcg5rTNFhaQkl6FMgN5om8FG4UlRlCXeF2G9vCzqWlfIimtMlyNi8+D1G4VibE9PDAT5ZREN1laQ20h24JtIbfImtbDeGMzVtdLgamRtjORCaCzMjtqrSXBWkkJ0Sqbext7DwjVDbgxFTMMZ0bzCujZ9jQRDZDcTmTYtFwbLy/oihZCcTZoqV8lzUZ3VirerGE2cR6MO3Vi6bXC5ac/dkH//Z;labelBackgroundColor=none;fillColor=#09555B;strokeColor=#BAC8D3;fontColor=#EEEEEE;" vertex="1" parent="1">
          <mxGeometry x="-2800" y="-1880" width="6500" height="4090" as="geometry" />
        </mxCell>
        <mxCell id="vpXYMXgtCUjcUCC5rdgy-42" value="&#xa;&lt;table&gt;&lt;tbody&gt;&lt;tr&gt;&lt;td data-col-size=&quot;sm&quot; data-end=&quot;3354&quot; data-start=&quot;3338&quot;&gt;&lt;/td&gt;&lt;/tr&gt;&lt;/tbody&gt;&lt;/table&gt;&lt;table&gt;&lt;tbody&gt;&lt;tr&gt;&lt;td data-col-size=&quot;sm&quot; data-end=&quot;3369&quot; data-start=&quot;3354&quot;&gt;VARCHAR(5)&lt;/td&gt;&lt;/tr&gt;&lt;/tbody&gt;&lt;/table&gt;&#xa;&#xa;" style="swimlane;fontStyle=1;align=center;verticalAlign=middle;childLayout=stackLayout;horizontal=1;startSize=26;horizontalStack=0;resizeParent=1;resizeParentMax=0;resizeLast=0;collapsible=1;marginBottom=0;whiteSpace=wrap;html=12;labelPosition=center;verticalLabelPosition=middle;absoluteArcSize=0;container=1;movable=0;resizable=0;rotatable=0;deletable=0;editable=0;locked=1;connectable=0;labelBackgroundColor=none;rounded=0;fillColor=#09555B;strokeColor=#BAC8D3;fontColor=#EEEEEE;" parent="1" vertex="1">
          <mxGeometry y="120" width="160" height="210" as="geometry">
            <mxRectangle y="120" width="80" height="30" as="alternateBounds" />
          </mxGeometry>
        </mxCell>
        <mxCell id="vpXYMXgtCUjcUCC5rdgy-64" value="airport_id" style="text;fillColor=none;align=left;verticalAlign=top;spacingLeft=4;spacingRight=4;overflow=hidden;rotatable=0;points=[[0,0.5],[1,0.5]];portConstraint=eastwest;whiteSpace=wrap;html=1;labelBackgroundColor=none;rounded=0;fontColor=#EEEEEE;" parent="1" vertex="1">
          <mxGeometry y="146" width="160" height="24" as="geometry" />
        </mxCell>
        <mxCell id="vpXYMXgtCUjcUCC5rdgy-63" value="airport_name" style="text;fillColor=none;align=left;verticalAlign=top;spacingLeft=4;spacingRight=4;overflow=hidden;rotatable=0;points=[[0,0.5],[1,0.5]];portConstraint=eastwest;whiteSpace=wrap;html=1;labelBackgroundColor=none;rounded=0;fontColor=#EEEEEE;" parent="1" vertex="1">
          <mxGeometry y="170" width="160" height="28" as="geometry" />
        </mxCell>
        <mxCell id="vpXYMXgtCUjcUCC5rdgy-62" value="country" style="text;fillColor=none;align=left;verticalAlign=top;spacingLeft=4;spacingRight=4;overflow=hidden;rotatable=0;points=[[0,0.5],[1,0.5]];portConstraint=eastwest;whiteSpace=wrap;html=1;labelBackgroundColor=none;rounded=0;fontColor=#EEEEEE;" parent="1" vertex="1">
          <mxGeometry y="198" width="160" height="26" as="geometry" />
        </mxCell>
        <mxCell id="vpXYMXgtCUjcUCC5rdgy-61" value="state" style="text;fillColor=none;align=left;verticalAlign=top;spacingLeft=4;spacingRight=4;overflow=hidden;rotatable=0;points=[[0,0.5],[1,0.5]];portConstraint=eastwest;whiteSpace=wrap;html=1;labelBackgroundColor=none;rounded=0;fontColor=#EEEEEE;" parent="1" vertex="1">
          <mxGeometry y="224" width="160" height="26" as="geometry" />
        </mxCell>
        <mxCell id="vpXYMXgtCUjcUCC5rdgy-60" value="city" style="text;fillColor=none;align=left;verticalAlign=top;spacingLeft=4;spacingRight=4;overflow=hidden;rotatable=0;points=[[0,0.5],[1,0.5]];portConstraint=eastwest;whiteSpace=wrap;html=1;labelBackgroundColor=none;rounded=0;fontColor=#EEEEEE;" parent="1" vertex="1">
          <mxGeometry y="250" width="160" height="26" as="geometry" />
        </mxCell>
        <mxCell id="vpXYMXgtCUjcUCC5rdgy-59" value="created_at" style="text;fillColor=none;align=left;verticalAlign=top;spacingLeft=4;spacingRight=4;overflow=hidden;rotatable=0;points=[[0,0.5],[1,0.5]];portConstraint=eastwest;whiteSpace=wrap;html=1;labelBackgroundColor=none;rounded=0;fontColor=#EEEEEE;" parent="1" vertex="1">
          <mxGeometry y="276" width="160" height="26" as="geometry" />
        </mxCell>
        <mxCell id="vpXYMXgtCUjcUCC5rdgy-58" value="updated_at" style="text;fillColor=none;align=left;verticalAlign=top;spacingLeft=4;spacingRight=4;overflow=hidden;rotatable=0;points=[[0,0.5],[1,0.5]];portConstraint=eastwest;whiteSpace=wrap;html=1;labelBackgroundColor=none;rounded=0;fontColor=#EEEEEE;" parent="1" vertex="1">
          <mxGeometry y="302" width="160" height="28" as="geometry" />
        </mxCell>
        <mxCell id="vpXYMXgtCUjcUCC5rdgy-56" style="text;strokeColor=none;fillColor=none;align=left;verticalAlign=top;spacingLeft=4;spacingRight=4;overflow=hidden;rotatable=0;points=[[0,0.5],[1,0.5]];portConstraint=eastwest;whiteSpace=wrap;html=1;labelBackgroundColor=none;rounded=0;fontColor=#EEEEEE;" parent="1" vertex="1">
          <mxGeometry x="-400" y="410" width="160" height="26" as="geometry" />
        </mxCell>
        <mxCell id="vpXYMXgtCUjcUCC5rdgy-52" style="text;strokeColor=none;fillColor=none;align=left;verticalAlign=top;spacingLeft=4;spacingRight=4;overflow=hidden;rotatable=0;points=[[0,0.5],[1,0.5]];portConstraint=eastwest;whiteSpace=wrap;html=1;container=0;labelBackgroundColor=none;rounded=0;fontColor=#EEEEEE;" parent="1" vertex="1">
          <mxGeometry x="-400" y="436" width="160" height="26" as="geometry" />
        </mxCell>
        <mxCell id="vpXYMXgtCUjcUCC5rdgy-69" value="VARCHAR" style="text;whiteSpace=wrap;html=1;fontFamily=Helvetica;fontSize=12;fontStyle=1;horizontal=1;labelBackgroundColor=none;rounded=0;fontColor=#EEEEEE;" parent="1" vertex="1">
          <mxGeometry x="90" y="198" width="80" height="40" as="geometry" />
        </mxCell>
        <mxCell id="vpXYMXgtCUjcUCC5rdgy-70" value="VARCHAR" style="text;whiteSpace=wrap;html=1;fontFamily=Helvetica;fontSize=12;fontStyle=1;horizontal=1;labelBackgroundColor=none;rounded=0;fontColor=#EEEEEE;" parent="1" vertex="1">
          <mxGeometry x="90" y="172" width="80" height="40" as="geometry" />
        </mxCell>
        <mxCell id="vpXYMXgtCUjcUCC5rdgy-71" value="VARCHAR" style="text;whiteSpace=wrap;html=1;fontFamily=Helvetica;fontSize=12;fontStyle=1;horizontal=1;labelBackgroundColor=none;rounded=0;fontColor=#EEEEEE;" parent="1" vertex="1">
          <mxGeometry x="90" y="224" width="80" height="40" as="geometry" />
        </mxCell>
        <mxCell id="vpXYMXgtCUjcUCC5rdgy-72" value="VARCHAR" style="text;whiteSpace=wrap;html=1;fontFamily=Helvetica;fontSize=12;fontStyle=1;horizontal=1;labelBackgroundColor=none;rounded=0;fontColor=#EEEEEE;" parent="1" vertex="1">
          <mxGeometry x="90" y="250" width="80" height="40" as="geometry" />
        </mxCell>
        <mxCell id="vpXYMXgtCUjcUCC5rdgy-73" value="TIMESTAMP" style="text;whiteSpace=wrap;html=1;fontFamily=Helvetica;fontSize=12;fontStyle=1;horizontal=1;labelBackgroundColor=none;rounded=0;fontColor=#EEEEEE;" parent="1" vertex="1">
          <mxGeometry x="80" y="276" width="100" height="40" as="geometry" />
        </mxCell>
        <mxCell id="vpXYMXgtCUjcUCC5rdgy-74" value="TIMESTAMP" style="text;whiteSpace=wrap;html=1;fontFamily=Helvetica;fontSize=12;fontStyle=1;horizontal=1;labelBackgroundColor=none;rounded=0;fontColor=#EEEEEE;" parent="1" vertex="1">
          <mxGeometry x="80" y="302" width="100" height="40" as="geometry" />
        </mxCell>
        <mxCell id="vpXYMXgtCUjcUCC5rdgy-75" value="INT" style="text;whiteSpace=wrap;html=1;fontFamily=Helvetica;fontSize=12;fontStyle=1;horizontal=1;labelBackgroundColor=none;rounded=0;fontColor=#EEEEEE;" parent="1" vertex="1">
          <mxGeometry x="90" y="146" width="50" height="40" as="geometry" />
        </mxCell>
        <mxCell id="vpXYMXgtCUjcUCC5rdgy-79" value="Airline" style="swimlane;fontStyle=1;align=center;verticalAlign=top;childLayout=stackLayout;horizontal=1;startSize=26;horizontalStack=0;resizeParent=1;resizeParentMax=0;resizeLast=0;collapsible=1;marginBottom=0;whiteSpace=wrap;html=1;absoluteArcSize=0;fontFamily=Helvetica;fontSize=12;labelBackgroundColor=none;rounded=0;fillColor=#09555B;strokeColor=#BAC8D3;fontColor=#EEEEEE;" parent="1" vertex="1">
          <mxGeometry x="220" y="-200" width="170" height="198" as="geometry" />
        </mxCell>
        <mxCell id="vpXYMXgtCUjcUCC5rdgy-80" value="&lt;span style=&quot;font-weight: normal;&quot;&gt;airline_id&lt;/span&gt;" style="text;fillColor=none;align=left;verticalAlign=top;spacingLeft=4;spacingRight=4;overflow=hidden;rotatable=0;points=[[0,0.5],[1,0.5]];portConstraint=eastwest;whiteSpace=wrap;html=1;fontFamily=Helvetica;fontSize=12;fontStyle=1;horizontal=1;labelBackgroundColor=none;rounded=0;fontColor=#EEEEEE;" parent="vpXYMXgtCUjcUCC5rdgy-79" vertex="1">
          <mxGeometry y="26" width="170" height="24" as="geometry" />
        </mxCell>
        <mxCell id="vpXYMXgtCUjcUCC5rdgy-90" value="&lt;span style=&quot;font-weight: normal;&quot;&gt;airline_code&lt;/span&gt;" style="text;whiteSpace=wrap;html=1;fontFamily=Helvetica;fontSize=12;fontStyle=1;horizontal=1;labelBackgroundColor=none;rounded=0;fontColor=#EEEEEE;" parent="vpXYMXgtCUjcUCC5rdgy-79" vertex="1">
          <mxGeometry y="50" width="170" height="30" as="geometry" />
        </mxCell>
        <mxCell id="vpXYMXgtCUjcUCC5rdgy-92" value="&lt;span style=&quot;font-weight: normal;&quot;&gt;name&lt;/span&gt;" style="text;whiteSpace=wrap;html=1;fontFamily=Helvetica;fontSize=12;fontStyle=1;horizontal=1;labelBackgroundColor=none;rounded=0;fontColor=#EEEEEE;" parent="vpXYMXgtCUjcUCC5rdgy-79" vertex="1">
          <mxGeometry y="80" width="170" height="28" as="geometry" />
        </mxCell>
        <mxCell id="vpXYMXgtCUjcUCC5rdgy-93" value="&lt;span style=&quot;font-weight: normal;&quot;&gt;country&lt;/span&gt;" style="text;whiteSpace=wrap;html=1;fontFamily=Helvetica;fontSize=12;fontStyle=1;horizontal=1;labelBackgroundColor=none;rounded=0;fontColor=#EEEEEE;" parent="vpXYMXgtCUjcUCC5rdgy-79" vertex="1">
          <mxGeometry y="108" width="170" height="30" as="geometry" />
        </mxCell>
        <mxCell id="vpXYMXgtCUjcUCC5rdgy-94" value="&lt;span style=&quot;font-weight: normal;&quot;&gt;created_at&lt;/span&gt;" style="text;whiteSpace=wrap;html=1;fontFamily=Helvetica;fontSize=12;fontStyle=1;horizontal=1;labelBackgroundColor=none;rounded=0;fontColor=#EEEEEE;" parent="vpXYMXgtCUjcUCC5rdgy-79" vertex="1">
          <mxGeometry y="138" width="170" height="28" as="geometry" />
        </mxCell>
        <mxCell id="vpXYMXgtCUjcUCC5rdgy-95" value="&lt;span style=&quot;font-weight: normal;&quot;&gt;updated_at&lt;/span&gt;" style="text;whiteSpace=wrap;html=1;fontFamily=Helvetica;fontSize=12;fontStyle=1;horizontal=1;labelBackgroundColor=none;rounded=0;fontColor=#EEEEEE;" parent="vpXYMXgtCUjcUCC5rdgy-79" vertex="1">
          <mxGeometry y="166" width="170" height="32" as="geometry" />
        </mxCell>
        <mxCell id="vpXYMXgtCUjcUCC5rdgy-96" value="INT" style="text;whiteSpace=wrap;html=1;fontFamily=Helvetica;fontSize=12;fontStyle=1;horizontal=1;labelBackgroundColor=none;rounded=0;fontColor=#EEEEEE;" parent="1" vertex="1">
          <mxGeometry x="300" y="-174" width="70" height="24" as="geometry" />
        </mxCell>
        <mxCell id="vpXYMXgtCUjcUCC5rdgy-98" value="VARCHAR(10)" style="text;whiteSpace=wrap;html=1;fontFamily=Helvetica;fontSize=12;fontStyle=1;horizontal=1;labelBackgroundColor=none;rounded=0;fontColor=#EEEEEE;" parent="1" vertex="1">
          <mxGeometry x="300" y="-148" width="90" height="30" as="geometry" />
        </mxCell>
        <mxCell id="vpXYMXgtCUjcUCC5rdgy-99" value="VARCHAR" style="text;whiteSpace=wrap;html=1;fontFamily=Helvetica;fontSize=12;fontStyle=1;horizontal=1;labelBackgroundColor=none;rounded=0;fontColor=#EEEEEE;" parent="1" vertex="1">
          <mxGeometry x="300" y="-120" width="70" height="30" as="geometry" />
        </mxCell>
        <mxCell id="vpXYMXgtCUjcUCC5rdgy-100" value="VARCHAR" style="text;whiteSpace=wrap;html=1;fontFamily=Helvetica;fontSize=12;fontStyle=1;horizontal=1;labelBackgroundColor=none;rounded=0;fontColor=#EEEEEE;" parent="1" vertex="1">
          <mxGeometry x="300" y="-90" width="70" height="30" as="geometry" />
        </mxCell>
        <mxCell id="vpXYMXgtCUjcUCC5rdgy-103" value="TIMESTAMP" style="text;whiteSpace=wrap;html=1;fontFamily=Helvetica;fontSize=12;fontStyle=1;horizontal=1;labelBackgroundColor=none;rounded=0;fontColor=#EEEEEE;" parent="1" vertex="1">
          <mxGeometry x="300" y="-30" width="80" height="30" as="geometry" />
        </mxCell>
        <mxCell id="vpXYMXgtCUjcUCC5rdgy-104" value="TIMESTAMP" style="text;whiteSpace=wrap;html=1;fontFamily=Helvetica;fontSize=12;fontStyle=1;horizontal=1;labelBackgroundColor=none;rounded=0;fontColor=#EEEEEE;" parent="1" vertex="1">
          <mxGeometry x="300" y="-60" width="80" height="30" as="geometry" />
        </mxCell>
        <mxCell id="vpXYMXgtCUjcUCC5rdgy-105" value="" style="rounded=0;whiteSpace=wrap;html=1;align=center;verticalAlign=middle;absoluteArcSize=0;fontFamily=Helvetica;fontSize=12;fontStyle=1;horizontal=1;labelBackgroundColor=none;fillColor=#09555B;strokeColor=#BAC8D3;fontColor=#EEEEEE;" parent="1" vertex="1">
          <mxGeometry x="160" y="120" width="30" height="210" as="geometry" />
        </mxCell>
        <mxCell id="vpXYMXgtCUjcUCC5rdgy-106" value="&lt;font style=&quot;font-size: 11px;&quot;&gt;key&lt;/font&gt;" style="text;html=1;align=center;verticalAlign=middle;resizable=0;points=[];autosize=1;strokeColor=none;fillColor=none;fontFamily=Helvetica;fontSize=12;fontStyle=1;horizontal=1;labelBackgroundColor=none;rounded=0;fontColor=#EEEEEE;" parent="1" vertex="1">
          <mxGeometry x="155" y="116" width="40" height="30" as="geometry" />
        </mxCell>
        <mxCell id="vpXYMXgtCUjcUCC5rdgy-108" value="PK" style="text;whiteSpace=wrap;html=1;fontFamily=Helvetica;fontSize=12;fontStyle=1;horizontal=1;labelBackgroundColor=none;rounded=0;fontColor=#EEEEEE;" parent="1" vertex="1">
          <mxGeometry x="160" y="146" width="30" height="24" as="geometry" />
        </mxCell>
        <mxCell id="vpXYMXgtCUjcUCC5rdgy-110" value="" style="rounded=0;whiteSpace=wrap;html=1;align=center;verticalAlign=middle;absoluteArcSize=0;fontFamily=Helvetica;fontSize=12;fontStyle=1;horizontal=1;labelBackgroundColor=none;fillColor=#09555B;strokeColor=#BAC8D3;fontColor=#EEEEEE;" parent="1" vertex="1">
          <mxGeometry x="-585" y="-210" width="240" height="30" as="geometry" />
        </mxCell>
        <mxCell id="vpXYMXgtCUjcUCC5rdgy-111" value="PK - primary key" style="text;whiteSpace=wrap;html=1;fontFamily=Helvetica;fontSize=12;fontStyle=1;horizontal=1;labelBackgroundColor=none;rounded=0;fontColor=#EEEEEE;" parent="1" vertex="1">
          <mxGeometry x="-585" y="-210" width="100" height="30" as="geometry" />
        </mxCell>
        <mxCell id="vpXYMXgtCUjcUCC5rdgy-112" value="" style="rounded=0;whiteSpace=wrap;html=1;align=center;verticalAlign=middle;absoluteArcSize=0;fontFamily=Helvetica;fontSize=12;fontStyle=1;horizontal=1;labelBackgroundColor=none;fillColor=#09555B;strokeColor=#BAC8D3;fontColor=#EEEEEE;" parent="1" vertex="1">
          <mxGeometry x="390" y="-200" width="30" height="200" as="geometry" />
        </mxCell>
        <mxCell id="vpXYMXgtCUjcUCC5rdgy-113" value="&lt;font style=&quot;font-size: 11px;&quot;&gt;key&lt;/font&gt;" style="text;html=1;align=center;verticalAlign=middle;resizable=0;points=[];autosize=1;strokeColor=none;fillColor=none;fontFamily=Helvetica;fontSize=12;fontStyle=1;horizontal=1;labelBackgroundColor=none;rounded=0;fontColor=#EEEEEE;" parent="1" vertex="1">
          <mxGeometry x="385" y="-204" width="40" height="30" as="geometry" />
        </mxCell>
        <mxCell id="vpXYMXgtCUjcUCC5rdgy-114" value="PK" style="text;whiteSpace=wrap;html=1;fontFamily=Helvetica;fontSize=12;fontStyle=1;horizontal=1;strokeWidth=1;perimeterSpacing=0;labelBackgroundColor=none;rounded=0;fontColor=#EEEEEE;" parent="1" vertex="1">
          <mxGeometry x="390" y="-174" width="30" height="24" as="geometry" />
        </mxCell>
        <mxCell id="vpXYMXgtCUjcUCC5rdgy-116" value="" style="rounded=0;whiteSpace=wrap;html=1;align=center;verticalAlign=middle;absoluteArcSize=0;fontFamily=Helvetica;fontSize=12;fontStyle=1;horizontal=1;labelBackgroundColor=none;fillColor=#09555B;strokeColor=#BAC8D3;fontColor=#EEEEEE;" parent="1" vertex="1">
          <mxGeometry x="-585" y="-180" width="240" height="30" as="geometry" />
        </mxCell>
        <mxCell id="vpXYMXgtCUjcUCC5rdgy-117" value="UNI-Unique" style="text;whiteSpace=wrap;html=1;fontFamily=Helvetica;fontSize=12;fontStyle=1;horizontal=1;labelBackgroundColor=none;rounded=0;fontColor=#EEEEEE;" parent="1" vertex="1">
          <mxGeometry x="-585" y="-180" width="100" height="40" as="geometry" />
        </mxCell>
        <mxCell id="vpXYMXgtCUjcUCC5rdgy-118" value="&lt;span style=&quot;color: rgb(0, 0, 0); font-family: Helvetica; font-size: 12px; font-style: normal; font-variant-ligatures: normal; font-variant-caps: normal; font-weight: 700; letter-spacing: normal; orphans: 2; text-align: left; text-indent: 0px; text-transform: none; widows: 2; word-spacing: 0px; -webkit-text-stroke-width: 0px; white-space: normal; text-decoration-thickness: initial; text-decoration-style: initial; text-decoration-color: initial; float: none; display: inline !important;&quot;&gt;UNI&lt;/span&gt;" style="text;whiteSpace=wrap;html=1;fontFamily=Helvetica;fontSize=12;fontStyle=1;horizontal=1;labelBackgroundColor=none;rounded=0;fontColor=#EEEEEE;" parent="1" vertex="1">
          <mxGeometry x="390" y="-150" width="30" height="30" as="geometry" />
        </mxCell>
        <mxCell id="vpXYMXgtCUjcUCC5rdgy-120" value="Flight" style="swimlane;fontStyle=1;align=center;verticalAlign=top;childLayout=stackLayout;horizontal=1;startSize=30;horizontalStack=0;resizeParent=1;resizeParentMax=0;resizeLast=0;collapsible=1;marginBottom=0;whiteSpace=wrap;html=1;absoluteArcSize=0;fontFamily=Helvetica;fontSize=12;labelBackgroundColor=none;rounded=0;fillColor=#09555B;strokeColor=#BAC8D3;fontColor=#EEEEEE;" parent="1" vertex="1">
          <mxGeometry x="-400" y="416" width="280" height="400" as="geometry" />
        </mxCell>
        <mxCell id="vpXYMXgtCUjcUCC5rdgy-130" value="flight_id" style="text;fillColor=none;align=left;verticalAlign=top;spacingLeft=4;spacingRight=4;overflow=hidden;rotatable=0;points=[[0,0.5],[1,0.5]];portConstraint=eastwest;whiteSpace=wrap;html=1;fontFamily=Helvetica;fontSize=12;fontStyle=1;horizontal=1;labelBackgroundColor=none;rounded=0;fontColor=#EEEEEE;" parent="vpXYMXgtCUjcUCC5rdgy-120" vertex="1">
          <mxGeometry y="30" width="280" height="30" as="geometry" />
        </mxCell>
        <mxCell id="vpXYMXgtCUjcUCC5rdgy-129" value="departure_airport_id" style="text;fillColor=none;align=left;verticalAlign=top;spacingLeft=4;spacingRight=4;overflow=hidden;rotatable=0;points=[[0,0.5],[1,0.5]];portConstraint=eastwest;whiteSpace=wrap;html=1;fontFamily=Helvetica;fontSize=12;fontStyle=1;horizontal=1;labelBackgroundColor=none;rounded=0;fontColor=#EEEEEE;" parent="vpXYMXgtCUjcUCC5rdgy-120" vertex="1">
          <mxGeometry y="60" width="280" height="34" as="geometry" />
        </mxCell>
        <mxCell id="vpXYMXgtCUjcUCC5rdgy-128" value="arrival_airport_id" style="text;fillColor=none;align=left;verticalAlign=top;spacingLeft=4;spacingRight=4;overflow=hidden;rotatable=0;points=[[0,0.5],[1,0.5]];portConstraint=eastwest;whiteSpace=wrap;html=1;fontFamily=Helvetica;fontSize=12;fontStyle=1;horizontal=1;labelBackgroundColor=none;rounded=0;fontColor=#EEEEEE;" parent="vpXYMXgtCUjcUCC5rdgy-120" vertex="1">
          <mxGeometry y="94" width="280" height="30" as="geometry" />
        </mxCell>
        <mxCell id="vpXYMXgtCUjcUCC5rdgy-127" value="airline_id" style="text;fillColor=none;align=left;verticalAlign=top;spacingLeft=4;spacingRight=4;overflow=hidden;rotatable=0;points=[[0,0.5],[1,0.5]];portConstraint=eastwest;whiteSpace=wrap;html=1;fontFamily=Helvetica;fontSize=12;fontStyle=1;horizontal=1;labelBackgroundColor=none;rounded=0;fontColor=#EEEEEE;" parent="vpXYMXgtCUjcUCC5rdgy-120" vertex="1">
          <mxGeometry y="124" width="280" height="30" as="geometry" />
        </mxCell>
        <mxCell id="vpXYMXgtCUjcUCC5rdgy-126" value="departing_gate" style="text;fillColor=none;align=left;verticalAlign=top;spacingLeft=4;spacingRight=4;overflow=hidden;rotatable=0;points=[[0,0.5],[1,0.5]];portConstraint=eastwest;whiteSpace=wrap;html=1;fontFamily=Helvetica;fontSize=12;fontStyle=1;horizontal=1;labelBackgroundColor=none;rounded=0;fontColor=#EEEEEE;" parent="vpXYMXgtCUjcUCC5rdgy-120" vertex="1">
          <mxGeometry y="154" width="280" height="30" as="geometry" />
        </mxCell>
        <mxCell id="vpXYMXgtCUjcUCC5rdgy-125" value="arriving_gate" style="text;fillColor=none;align=left;verticalAlign=top;spacingLeft=4;spacingRight=4;overflow=hidden;rotatable=0;points=[[0,0.5],[1,0.5]];portConstraint=eastwest;whiteSpace=wrap;html=1;fontFamily=Helvetica;fontSize=12;fontStyle=1;horizontal=1;labelBackgroundColor=none;rounded=0;fontColor=#EEEEEE;" parent="vpXYMXgtCUjcUCC5rdgy-120" vertex="1">
          <mxGeometry y="184" width="280" height="30" as="geometry" />
        </mxCell>
        <mxCell id="vpXYMXgtCUjcUCC5rdgy-124" value="scheduled_departure_time" style="text;fillColor=none;align=left;verticalAlign=top;spacingLeft=4;spacingRight=4;overflow=hidden;rotatable=0;points=[[0,0.5],[1,0.5]];portConstraint=eastwest;whiteSpace=wrap;html=1;fontFamily=Helvetica;fontSize=12;fontStyle=1;horizontal=1;labelBackgroundColor=none;rounded=0;fontColor=#EEEEEE;" parent="vpXYMXgtCUjcUCC5rdgy-120" vertex="1">
          <mxGeometry y="214" width="280" height="30" as="geometry" />
        </mxCell>
        <mxCell id="vpXYMXgtCUjcUCC5rdgy-132" value="scheduled_arrival_time" style="text;fillColor=none;align=left;verticalAlign=top;spacingLeft=4;spacingRight=4;overflow=hidden;rotatable=0;points=[[0,0.5],[1,0.5]];portConstraint=eastwest;whiteSpace=wrap;html=1;fontFamily=Helvetica;fontSize=12;fontStyle=1;horizontal=1;labelBackgroundColor=none;rounded=0;fontColor=#EEEEEE;" parent="vpXYMXgtCUjcUCC5rdgy-120" vertex="1">
          <mxGeometry y="244" width="280" height="30" as="geometry" />
        </mxCell>
        <mxCell id="vpXYMXgtCUjcUCC5rdgy-133" value="actual_departure_time" style="text;fillColor=none;align=left;verticalAlign=top;spacingLeft=4;spacingRight=4;overflow=hidden;rotatable=0;points=[[0,0.5],[1,0.5]];portConstraint=eastwest;whiteSpace=wrap;html=1;fontFamily=Helvetica;fontSize=12;fontStyle=1;horizontal=1;labelBackgroundColor=none;rounded=0;fontColor=#EEEEEE;" parent="vpXYMXgtCUjcUCC5rdgy-120" vertex="1">
          <mxGeometry y="274" width="280" height="30" as="geometry" />
        </mxCell>
        <mxCell id="vpXYMXgtCUjcUCC5rdgy-134" value="actual_arrival_time" style="text;fillColor=none;align=left;verticalAlign=top;spacingLeft=4;spacingRight=4;overflow=hidden;rotatable=0;points=[[0,0.5],[1,0.5]];portConstraint=eastwest;whiteSpace=wrap;html=1;fontFamily=Helvetica;fontSize=12;fontStyle=1;horizontal=1;labelBackgroundColor=none;rounded=0;fontColor=#EEEEEE;" parent="vpXYMXgtCUjcUCC5rdgy-120" vertex="1">
          <mxGeometry y="304" width="280" height="30" as="geometry" />
        </mxCell>
        <mxCell id="vpXYMXgtCUjcUCC5rdgy-135" value="created_at" style="text;fillColor=none;align=left;verticalAlign=top;spacingLeft=4;spacingRight=4;overflow=hidden;rotatable=0;points=[[0,0.5],[1,0.5]];portConstraint=eastwest;whiteSpace=wrap;html=1;fontFamily=Helvetica;fontSize=12;fontStyle=1;horizontal=1;labelBackgroundColor=none;rounded=0;fontColor=#EEEEEE;" parent="vpXYMXgtCUjcUCC5rdgy-120" vertex="1">
          <mxGeometry y="334" width="280" height="30" as="geometry" />
        </mxCell>
        <mxCell id="vpXYMXgtCUjcUCC5rdgy-136" value="updated_at" style="text;fillColor=none;align=left;verticalAlign=top;spacingLeft=4;spacingRight=4;overflow=hidden;rotatable=0;points=[[0,0.5],[1,0.5]];portConstraint=eastwest;whiteSpace=wrap;html=1;fontFamily=Helvetica;fontSize=12;fontStyle=1;horizontal=1;labelBackgroundColor=none;rounded=0;fontColor=#EEEEEE;" parent="vpXYMXgtCUjcUCC5rdgy-120" vertex="1">
          <mxGeometry y="364" width="280" height="36" as="geometry" />
        </mxCell>
        <mxCell id="vpXYMXgtCUjcUCC5rdgy-138" value="INT" style="text;whiteSpace=wrap;html=1;fontFamily=Helvetica;fontSize=12;fontStyle=1;horizontal=1;labelBackgroundColor=none;rounded=0;fontColor=#EEEEEE;" parent="1" vertex="1">
          <mxGeometry x="-240" y="446" width="50" height="30" as="geometry" />
        </mxCell>
        <mxCell id="vpXYMXgtCUjcUCC5rdgy-140" value="INT" style="text;whiteSpace=wrap;html=1;fontFamily=Helvetica;fontSize=12;fontStyle=1;horizontal=1;labelBackgroundColor=none;rounded=0;fontColor=#EEEEEE;" parent="1" vertex="1">
          <mxGeometry x="-240" y="510" width="50" height="30" as="geometry" />
        </mxCell>
        <mxCell id="vpXYMXgtCUjcUCC5rdgy-141" value="INT" style="text;whiteSpace=wrap;html=1;fontFamily=Helvetica;fontSize=12;fontStyle=1;horizontal=1;labelBackgroundColor=none;rounded=0;fontColor=#EEEEEE;" parent="1" vertex="1">
          <mxGeometry x="-240" y="540" width="50" height="30" as="geometry" />
        </mxCell>
        <mxCell id="vpXYMXgtCUjcUCC5rdgy-142" value="VARCHAR(10)" style="text;whiteSpace=wrap;html=1;fontFamily=Helvetica;fontSize=12;fontStyle=1;horizontal=1;labelBackgroundColor=none;rounded=0;fontColor=#EEEEEE;" parent="1" vertex="1">
          <mxGeometry x="-240" y="570" width="90" height="30" as="geometry" />
        </mxCell>
        <mxCell id="vpXYMXgtCUjcUCC5rdgy-139" value="INT" style="text;whiteSpace=wrap;html=1;fontFamily=Helvetica;fontSize=12;fontStyle=1;horizontal=1;labelBackgroundColor=none;rounded=0;fontColor=#EEEEEE;" parent="1" vertex="1">
          <mxGeometry x="-240" y="476" width="70" height="30" as="geometry" />
        </mxCell>
        <mxCell id="vpXYMXgtCUjcUCC5rdgy-145" value="VARCHAR(10)" style="text;whiteSpace=wrap;html=1;fontFamily=Helvetica;fontSize=12;fontStyle=1;horizontal=1;labelBackgroundColor=none;rounded=0;fontColor=#EEEEEE;" parent="1" vertex="1">
          <mxGeometry x="-240" y="600" width="110" height="26" as="geometry" />
        </mxCell>
        <mxCell id="vpXYMXgtCUjcUCC5rdgy-146" value="VARCHAR&lt;div&gt;&lt;br&gt;&lt;/div&gt;" style="text;whiteSpace=wrap;html=1;fontFamily=Helvetica;fontSize=12;fontStyle=1;horizontal=1;labelBackgroundColor=none;rounded=0;fontColor=#EEEEEE;" parent="1" vertex="1">
          <mxGeometry x="-240" y="636" width="110" height="34" as="geometry" />
        </mxCell>
        <mxCell id="vpXYMXgtCUjcUCC5rdgy-147" value="TIMESTAMP" style="text;whiteSpace=wrap;html=1;fontFamily=Helvetica;fontSize=12;fontStyle=1;horizontal=1;labelBackgroundColor=none;rounded=0;fontColor=#EEEEEE;" parent="1" vertex="1">
          <mxGeometry x="-240" y="660" width="100" height="40" as="geometry" />
        </mxCell>
        <mxCell id="vpXYMXgtCUjcUCC5rdgy-148" value="TIMESTAMP" style="text;whiteSpace=wrap;html=1;fontFamily=Helvetica;fontSize=12;fontStyle=1;horizontal=1;labelBackgroundColor=none;rounded=0;fontColor=#EEEEEE;" parent="1" vertex="1">
          <mxGeometry x="-240" y="690" width="100" height="40" as="geometry" />
        </mxCell>
        <mxCell id="vpXYMXgtCUjcUCC5rdgy-149" value="TIMESTAMP" style="text;whiteSpace=wrap;html=1;fontFamily=Helvetica;fontSize=12;fontStyle=1;horizontal=1;labelBackgroundColor=none;rounded=0;fontColor=#EEEEEE;" parent="1" vertex="1">
          <mxGeometry x="-240" y="720" width="100" height="40" as="geometry" />
        </mxCell>
        <mxCell id="vpXYMXgtCUjcUCC5rdgy-150" value="TIMESTAMP" style="text;whiteSpace=wrap;html=1;fontFamily=Helvetica;fontSize=12;fontStyle=1;horizontal=1;labelBackgroundColor=none;rounded=0;fontColor=#EEEEEE;" parent="1" vertex="1">
          <mxGeometry x="-240" y="750" width="100" height="40" as="geometry" />
        </mxCell>
        <mxCell id="vpXYMXgtCUjcUCC5rdgy-151" value="TIMESTAMP" style="text;whiteSpace=wrap;html=1;fontFamily=Helvetica;fontSize=12;fontStyle=1;horizontal=1;labelBackgroundColor=none;rounded=0;fontColor=#EEEEEE;" parent="1" vertex="1">
          <mxGeometry x="-240" y="780" width="100" height="40" as="geometry" />
        </mxCell>
        <mxCell id="vpXYMXgtCUjcUCC5rdgy-152" value="" style="endArrow=none;html=1;rounded=0;fontFamily=Helvetica;fontSize=12;fontColor=default;fontStyle=1;horizontal=1;entryX=0;entryY=0;entryDx=0;entryDy=0;labelBackgroundColor=none;strokeColor=#0B4D6A;" parent="1" target="vpXYMXgtCUjcUCC5rdgy-138" edge="1">
          <mxGeometry width="50" height="50" relative="1" as="geometry">
            <mxPoint x="-240" y="816" as="sourcePoint" />
            <mxPoint x="-100" y="576" as="targetPoint" />
          </mxGeometry>
        </mxCell>
        <mxCell id="vpXYMXgtCUjcUCC5rdgy-154" value="Passenger&lt;div&gt;&lt;br&gt;&lt;/div&gt;" style="swimlane;fontStyle=1;align=center;verticalAlign=top;childLayout=stackLayout;horizontal=1;startSize=26;horizontalStack=0;resizeParent=1;resizeParentMax=0;resizeLast=0;collapsible=1;marginBottom=0;whiteSpace=wrap;html=1;absoluteArcSize=0;fontFamily=Helvetica;fontSize=12;labelBackgroundColor=none;rounded=0;fillColor=#09555B;strokeColor=#BAC8D3;fontColor=#EEEEEE;" parent="1" vertex="1">
          <mxGeometry x="320" y="360" width="270" height="290" as="geometry" />
        </mxCell>
        <mxCell id="vpXYMXgtCUjcUCC5rdgy-176" value="passenger_id" style="text;fillColor=none;align=left;verticalAlign=top;spacingLeft=4;spacingRight=4;overflow=hidden;rotatable=0;points=[[0,0.5],[1,0.5]];portConstraint=eastwest;whiteSpace=wrap;html=1;fontFamily=Helvetica;fontSize=12;fontStyle=1;horizontal=1;labelBackgroundColor=none;rounded=0;fontColor=#EEEEEE;" parent="vpXYMXgtCUjcUCC5rdgy-154" vertex="1">
          <mxGeometry y="26" width="270" height="26" as="geometry" />
        </mxCell>
        <mxCell id="vpXYMXgtCUjcUCC5rdgy-175" value="first_name&lt;span style=&quot;white-space: pre;&quot;&gt;&#x9;&lt;/span&gt;" style="text;strokeColor=none;fillColor=none;align=left;verticalAlign=top;spacingLeft=4;spacingRight=4;overflow=hidden;rotatable=0;points=[[0,0.5],[1,0.5]];portConstraint=eastwest;whiteSpace=wrap;html=1;fontFamily=Helvetica;fontSize=12;fontStyle=1;horizontal=1;labelBackgroundColor=none;rounded=0;fontColor=#EEEEEE;" parent="vpXYMXgtCUjcUCC5rdgy-154" vertex="1">
          <mxGeometry y="52" width="270" height="26" as="geometry" />
        </mxCell>
        <mxCell id="vpXYMXgtCUjcUCC5rdgy-174" value="last_name&lt;span style=&quot;white-space: pre;&quot;&gt;&#x9;&lt;/span&gt;" style="text;fillColor=none;align=left;verticalAlign=top;spacingLeft=4;spacingRight=4;overflow=hidden;rotatable=0;points=[[0,0.5],[1,0.5]];portConstraint=eastwest;whiteSpace=wrap;html=1;fontFamily=Helvetica;fontSize=12;fontStyle=1;horizontal=1;labelBackgroundColor=none;rounded=0;fontColor=#EEEEEE;" parent="vpXYMXgtCUjcUCC5rdgy-154" vertex="1">
          <mxGeometry y="78" width="270" height="26" as="geometry" />
        </mxCell>
        <mxCell id="vpXYMXgtCUjcUCC5rdgy-173" value="gender" style="text;fillColor=none;align=left;verticalAlign=top;spacingLeft=4;spacingRight=4;overflow=hidden;rotatable=0;points=[[0,0.5],[1,0.5]];portConstraint=eastwest;whiteSpace=wrap;html=1;fontFamily=Helvetica;fontSize=12;fontStyle=1;horizontal=1;labelBackgroundColor=none;rounded=0;fontColor=#EEEEEE;" parent="vpXYMXgtCUjcUCC5rdgy-154" vertex="1">
          <mxGeometry y="104" width="270" height="26" as="geometry" />
        </mxCell>
        <mxCell id="vpXYMXgtCUjcUCC5rdgy-172" value="date_of_birth" style="text;fillColor=none;align=left;verticalAlign=top;spacingLeft=4;spacingRight=4;overflow=hidden;rotatable=0;points=[[0,0.5],[1,0.5]];portConstraint=eastwest;whiteSpace=wrap;html=1;fontFamily=Helvetica;fontSize=12;fontStyle=1;horizontal=1;labelBackgroundColor=none;rounded=0;fontColor=#EEEEEE;" parent="vpXYMXgtCUjcUCC5rdgy-154" vertex="1">
          <mxGeometry y="130" width="270" height="26" as="geometry" />
        </mxCell>
        <mxCell id="vpXYMXgtCUjcUCC5rdgy-171" value="country_of_citizenship" style="text;fillColor=none;align=left;verticalAlign=top;spacingLeft=4;spacingRight=4;overflow=hidden;rotatable=0;points=[[0,0.5],[1,0.5]];portConstraint=eastwest;whiteSpace=wrap;html=1;fontFamily=Helvetica;fontSize=12;fontStyle=1;horizontal=1;labelBackgroundColor=none;rounded=0;fontColor=#EEEEEE;" parent="vpXYMXgtCUjcUCC5rdgy-154" vertex="1">
          <mxGeometry y="156" width="270" height="26" as="geometry" />
        </mxCell>
        <mxCell id="vpXYMXgtCUjcUCC5rdgy-170" value="country_of_residence" style="text;fillColor=none;align=left;verticalAlign=top;spacingLeft=4;spacingRight=4;overflow=hidden;rotatable=0;points=[[0,0.5],[1,0.5]];portConstraint=eastwest;whiteSpace=wrap;html=1;fontFamily=Helvetica;fontSize=12;fontStyle=1;horizontal=1;labelBackgroundColor=none;rounded=0;fontColor=#EEEEEE;" parent="vpXYMXgtCUjcUCC5rdgy-154" vertex="1">
          <mxGeometry y="182" width="270" height="26" as="geometry" />
        </mxCell>
        <mxCell id="vpXYMXgtCUjcUCC5rdgy-169" value="passport_number" style="text;fillColor=none;align=left;verticalAlign=top;spacingLeft=4;spacingRight=4;overflow=hidden;rotatable=0;points=[[0,0.5],[1,0.5]];portConstraint=eastwest;whiteSpace=wrap;html=1;fontFamily=Helvetica;fontSize=12;fontStyle=1;horizontal=1;labelBackgroundColor=none;rounded=0;fontColor=#EEEEEE;" parent="vpXYMXgtCUjcUCC5rdgy-154" vertex="1">
          <mxGeometry y="208" width="270" height="26" as="geometry" />
        </mxCell>
        <mxCell id="vpXYMXgtCUjcUCC5rdgy-178" value="created_at" style="text;fillColor=none;align=left;verticalAlign=top;spacingLeft=4;spacingRight=4;overflow=hidden;rotatable=0;points=[[0,0.5],[1,0.5]];portConstraint=eastwest;whiteSpace=wrap;html=1;fontFamily=Helvetica;fontSize=12;fontStyle=1;horizontal=1;labelBackgroundColor=none;rounded=0;fontColor=#EEEEEE;" parent="vpXYMXgtCUjcUCC5rdgy-154" vertex="1">
          <mxGeometry y="234" width="270" height="26" as="geometry" />
        </mxCell>
        <mxCell id="vpXYMXgtCUjcUCC5rdgy-177" value="updated_at" style="text;fillColor=none;align=left;verticalAlign=top;spacingLeft=4;spacingRight=4;overflow=hidden;rotatable=0;points=[[0,0.5],[1,0.5]];portConstraint=eastwest;whiteSpace=wrap;html=1;fontFamily=Helvetica;fontSize=12;fontStyle=1;horizontal=1;labelBackgroundColor=none;rounded=0;fontColor=#EEEEEE;" parent="vpXYMXgtCUjcUCC5rdgy-154" vertex="1">
          <mxGeometry y="260" width="270" height="30" as="geometry" />
        </mxCell>
        <mxCell id="vpXYMXgtCUjcUCC5rdgy-189" value="" style="endArrow=none;html=1;rounded=0;fontFamily=Helvetica;fontSize=12;fontColor=default;fontStyle=1;horizontal=1;labelBackgroundColor=none;strokeColor=#0B4D6A;" parent="vpXYMXgtCUjcUCC5rdgy-154" edge="1">
          <mxGeometry width="50" height="50" relative="1" as="geometry">
            <mxPoint x="142" y="290" as="sourcePoint" />
            <mxPoint x="140" y="27" as="targetPoint" />
          </mxGeometry>
        </mxCell>
        <mxCell id="vpXYMXgtCUjcUCC5rdgy-179" value="INT" style="text;whiteSpace=wrap;html=1;fontFamily=Helvetica;fontSize=12;fontStyle=1;horizontal=1;labelBackgroundColor=none;rounded=0;fontColor=#EEEEEE;" parent="1" vertex="1">
          <mxGeometry x="470" y="385" width="30" height="40" as="geometry" />
        </mxCell>
        <mxCell id="vpXYMXgtCUjcUCC5rdgy-180" value="VARCHAR" style="text;whiteSpace=wrap;html=1;fontFamily=Helvetica;fontSize=12;fontStyle=1;horizontal=1;labelBackgroundColor=none;rounded=0;fontColor=#EEEEEE;" parent="1" vertex="1">
          <mxGeometry x="470" y="412" width="90" height="40" as="geometry" />
        </mxCell>
        <mxCell id="vpXYMXgtCUjcUCC5rdgy-181" value="VARCHAR" style="text;whiteSpace=wrap;html=1;fontFamily=Helvetica;fontSize=12;fontStyle=1;horizontal=1;labelBackgroundColor=none;rounded=0;fontColor=#EEEEEE;" parent="1" vertex="1">
          <mxGeometry x="470" y="437" width="90" height="40" as="geometry" />
        </mxCell>
        <mxCell id="vpXYMXgtCUjcUCC5rdgy-182" value="CHAR(1)" style="text;whiteSpace=wrap;html=1;fontFamily=Helvetica;fontSize=12;fontStyle=1;horizontal=1;labelBackgroundColor=none;rounded=0;fontColor=#EEEEEE;" parent="1" vertex="1">
          <mxGeometry x="470" y="463" width="80" height="40" as="geometry" />
        </mxCell>
        <mxCell id="vpXYMXgtCUjcUCC5rdgy-183" value="DATE" style="text;whiteSpace=wrap;html=1;fontFamily=Helvetica;fontSize=12;fontStyle=1;horizontal=1;labelBackgroundColor=none;rounded=0;fontColor=#EEEEEE;" parent="1" vertex="1">
          <mxGeometry x="470" y="490" width="60" height="40" as="geometry" />
        </mxCell>
        <mxCell id="vpXYMXgtCUjcUCC5rdgy-184" value="&#xa;VARCHAR&#xa;&#xa;" style="text;whiteSpace=wrap;html=1;fontFamily=Helvetica;fontSize=12;fontStyle=1;horizontal=1;labelBackgroundColor=none;rounded=0;fontColor=#EEEEEE;" parent="1" vertex="1">
          <mxGeometry x="470" y="500" width="90" height="40" as="geometry" />
        </mxCell>
        <mxCell id="vpXYMXgtCUjcUCC5rdgy-185" value="VARCHAR" style="text;whiteSpace=wrap;html=1;fontFamily=Helvetica;fontSize=12;fontStyle=1;horizontal=1;labelBackgroundColor=none;rounded=0;fontColor=#EEEEEE;" parent="1" vertex="1">
          <mxGeometry x="470" y="540" width="90" height="40" as="geometry" />
        </mxCell>
        <mxCell id="vpXYMXgtCUjcUCC5rdgy-186" value="VARCHAR(20)" style="text;whiteSpace=wrap;html=1;fontFamily=Helvetica;fontSize=12;fontStyle=1;horizontal=1;labelBackgroundColor=none;rounded=0;fontColor=#EEEEEE;" parent="1" vertex="1">
          <mxGeometry x="470" y="570" width="90" height="40" as="geometry" />
        </mxCell>
        <mxCell id="vpXYMXgtCUjcUCC5rdgy-187" value="TIMESTAMP" style="text;whiteSpace=wrap;html=1;fontFamily=Helvetica;fontSize=12;fontStyle=1;horizontal=1;labelBackgroundColor=none;rounded=0;fontColor=#EEEEEE;" parent="1" vertex="1">
          <mxGeometry x="470" y="594" width="100" height="40" as="geometry" />
        </mxCell>
        <mxCell id="vpXYMXgtCUjcUCC5rdgy-188" value="TIMESTAMP" style="text;whiteSpace=wrap;html=1;fontFamily=Helvetica;fontSize=12;fontStyle=1;horizontal=1;labelBackgroundColor=none;rounded=0;fontColor=#EEEEEE;" parent="1" vertex="1">
          <mxGeometry x="470" y="620" width="100" height="40" as="geometry" />
        </mxCell>
        <mxCell id="vpXYMXgtCUjcUCC5rdgy-190" value="&lt;table&gt;&lt;tbody&gt;&lt;tr&gt;&lt;td data-start=&quot;1738&quot; data-end=&quot;1753&quot; data-col-size=&quot;sm&quot;&gt;&lt;/td&gt;&lt;/tr&gt;&lt;/tbody&gt;&lt;/table&gt;&lt;table&gt;&lt;tbody&gt;&lt;tr&gt;&lt;td data-start=&quot;1753&quot; data-end=&quot;1759&quot; data-col-size=&quot;sm&quot;&gt;PK&lt;/td&gt;&lt;/tr&gt;&lt;/tbody&gt;&lt;/table&gt;" style="text;whiteSpace=wrap;html=1;fontFamily=Helvetica;fontSize=12;fontStyle=1;horizontal=1;align=center;labelBackgroundColor=none;rounded=0;fontColor=#EEEEEE;" parent="1" vertex="1">
          <mxGeometry x="-150" y="439" width="30" height="30" as="geometry" />
        </mxCell>
        <mxCell id="vpXYMXgtCUjcUCC5rdgy-194" value="FK" style="text;whiteSpace=wrap;html=1;fontFamily=Helvetica;fontSize=12;fontStyle=1;horizontal=1;align=center;labelBackgroundColor=none;rounded=0;fontColor=#EEEEEE;" parent="1" vertex="1">
          <mxGeometry x="-160" y="476" width="40" height="43" as="geometry" />
        </mxCell>
        <mxCell id="vpXYMXgtCUjcUCC5rdgy-195" value="FK" style="text;whiteSpace=wrap;html=1;fontFamily=Helvetica;fontSize=12;fontStyle=1;horizontal=1;align=center;labelBackgroundColor=none;rounded=0;fontColor=#EEEEEE;" parent="1" vertex="1">
          <mxGeometry x="-150" y="510" width="30" height="40" as="geometry" />
        </mxCell>
        <mxCell id="vpXYMXgtCUjcUCC5rdgy-205" style="edgeStyle=orthogonalEdgeStyle;rounded=0;orthogonalLoop=1;jettySize=auto;html=1;exitX=1;exitY=0.25;exitDx=0;exitDy=0;entryX=1;entryY=0.5;entryDx=0;entryDy=0;fontFamily=Helvetica;fontSize=12;fontColor=default;fontStyle=1;horizontal=1;labelBackgroundColor=none;strokeColor=#0B4D6A;" parent="1" source="vpXYMXgtCUjcUCC5rdgy-196" target="vpXYMXgtCUjcUCC5rdgy-114" edge="1">
          <mxGeometry relative="1" as="geometry">
            <Array as="points">
              <mxPoint x="-120" y="494" />
              <mxPoint x="290" y="494" />
              <mxPoint x="290" y="340" />
              <mxPoint x="510" y="340" />
              <mxPoint x="510" y="158" />
              <mxPoint x="470" y="158" />
              <mxPoint x="470" y="-162" />
            </Array>
          </mxGeometry>
        </mxCell>
        <mxCell id="vpXYMXgtCUjcUCC5rdgy-196" value="FK" style="text;whiteSpace=wrap;html=1;fontFamily=Helvetica;fontSize=12;fontStyle=1;horizontal=1;align=center;labelBackgroundColor=none;rounded=0;fontColor=#EEEEEE;" parent="1" vertex="1">
          <mxGeometry x="-150" y="541" width="30" height="35" as="geometry" />
        </mxCell>
        <mxCell id="vpXYMXgtCUjcUCC5rdgy-198" value="" style="endArrow=none;html=1;rounded=0;fontFamily=Helvetica;fontSize=12;fontColor=default;fontStyle=1;horizontal=1;entryX=0;entryY=0.25;entryDx=0;entryDy=0;exitX=0.889;exitY=0.913;exitDx=0;exitDy=0;exitPerimeter=0;labelBackgroundColor=none;strokeColor=#0B4D6A;" parent="1" source="vpXYMXgtCUjcUCC5rdgy-151" target="vpXYMXgtCUjcUCC5rdgy-190" edge="1">
          <mxGeometry width="50" height="50" relative="1" as="geometry">
            <mxPoint x="-110" y="626" as="sourcePoint" />
            <mxPoint x="-60" y="576" as="targetPoint" />
          </mxGeometry>
        </mxCell>
        <mxCell id="vpXYMXgtCUjcUCC5rdgy-206" value="&lt;table&gt;&lt;tbody&gt;&lt;tr data-start=&quot;2348&quot; data-end=&quot;2388&quot;&gt;&lt;td data-start=&quot;2382&quot; data-end=&quot;2388&quot; data-col-size=&quot;sm&quot;&gt;PK&lt;/td&gt;&lt;/tr&gt;&lt;/tbody&gt;&lt;/table&gt;&lt;table&gt;&lt;tbody&gt;&lt;tr data-start=&quot;2389&quot; data-end=&quot;2426&quot;&gt;&lt;td data-start=&quot;2389&quot; data-end=&quot;2408&quot; data-col-size=&quot;sm&quot;&gt;&lt;/td&gt;&lt;/tr&gt;&lt;/tbody&gt;&lt;/table&gt;" style="text;whiteSpace=wrap;html=1;fontFamily=Helvetica;fontSize=12;fontStyle=1;horizontal=1;labelBackgroundColor=none;rounded=0;fontColor=#EEEEEE;" parent="1" vertex="1">
          <mxGeometry x="560" y="385" width="30" height="25" as="geometry" />
        </mxCell>
        <mxCell id="vpXYMXgtCUjcUCC5rdgy-207" value="UNI" style="text;whiteSpace=wrap;html=1;fontFamily=Helvetica;fontSize=12;fontStyle=1;horizontal=1;labelBackgroundColor=none;rounded=0;fontColor=#EEEEEE;" parent="1" vertex="1">
          <mxGeometry x="560" y="570" width="80" height="40" as="geometry" />
        </mxCell>
        <mxCell id="vpXYMXgtCUjcUCC5rdgy-208" value="" style="endArrow=none;html=1;rounded=0;fontFamily=Helvetica;fontSize=12;fontColor=default;fontStyle=1;horizontal=1;labelBackgroundColor=none;strokeColor=#0B4D6A;" parent="1" edge="1">
          <mxGeometry width="50" height="50" relative="1" as="geometry">
            <mxPoint x="560" y="650" as="sourcePoint" />
            <mxPoint x="560" y="386" as="targetPoint" />
          </mxGeometry>
        </mxCell>
        <mxCell id="vpXYMXgtCUjcUCC5rdgy-209" value="" style="rounded=0;whiteSpace=wrap;html=1;align=center;verticalAlign=middle;absoluteArcSize=0;fontFamily=Helvetica;fontSize=12;fontStyle=1;horizontal=1;labelBackgroundColor=none;fillColor=#09555B;strokeColor=#BAC8D3;fontColor=#EEEEEE;" parent="1" vertex="1">
          <mxGeometry x="-585" y="-150" width="240" height="30" as="geometry" />
        </mxCell>
        <mxCell id="vpXYMXgtCUjcUCC5rdgy-210" value="FK-Foreign Key" style="text;html=1;align=center;verticalAlign=middle;resizable=0;points=[];autosize=1;strokeColor=none;fillColor=none;fontFamily=Helvetica;fontSize=12;fontStyle=1;horizontal=1;labelBackgroundColor=none;rounded=0;fontColor=#EEEEEE;" parent="1" vertex="1">
          <mxGeometry x="-590" y="-150" width="110" height="30" as="geometry" />
        </mxCell>
        <mxCell id="vpXYMXgtCUjcUCC5rdgy-212" style="edgeStyle=orthogonalEdgeStyle;rounded=0;orthogonalLoop=1;jettySize=auto;html=1;exitX=0;exitY=0.5;exitDx=0;exitDy=0;entryX=0;entryY=0.5;entryDx=0;entryDy=0;fontFamily=Helvetica;fontSize=12;fontColor=default;fontStyle=1;horizontal=1;labelBackgroundColor=none;strokeColor=#0B4D6A;" parent="1" source="vpXYMXgtCUjcUCC5rdgy-129" target="vpXYMXgtCUjcUCC5rdgy-64" edge="1">
          <mxGeometry relative="1" as="geometry" />
        </mxCell>
        <mxCell id="vpXYMXgtCUjcUCC5rdgy-213" style="edgeStyle=orthogonalEdgeStyle;rounded=0;orthogonalLoop=1;jettySize=auto;html=1;exitX=0;exitY=0.5;exitDx=0;exitDy=0;entryX=0;entryY=0.5;entryDx=0;entryDy=0;fontFamily=Helvetica;fontSize=12;fontColor=default;fontStyle=1;horizontal=1;labelBackgroundColor=none;strokeColor=#0B4D6A;" parent="1" source="vpXYMXgtCUjcUCC5rdgy-128" target="vpXYMXgtCUjcUCC5rdgy-64" edge="1">
          <mxGeometry relative="1" as="geometry" />
        </mxCell>
        <mxCell id="vpXYMXgtCUjcUCC5rdgy-214" value="Booking" style="swimlane;fontStyle=1;align=center;verticalAlign=top;childLayout=stackLayout;horizontal=1;startSize=26;horizontalStack=0;resizeParent=1;resizeParentMax=0;resizeLast=0;collapsible=1;marginBottom=0;whiteSpace=wrap;html=1;absoluteArcSize=0;fontFamily=Helvetica;fontSize=12;labelBackgroundColor=none;rounded=0;fillColor=#09555B;strokeColor=#BAC8D3;fontColor=#EEEEEE;" parent="1" vertex="1">
          <mxGeometry x="210" y="864.49" width="236" height="234" as="geometry" />
        </mxCell>
        <mxCell id="vpXYMXgtCUjcUCC5rdgy-217" value="booking_id" style="text;fillColor=none;align=left;verticalAlign=top;spacingLeft=4;spacingRight=4;overflow=hidden;rotatable=0;points=[[0,0.5],[1,0.5]];portConstraint=eastwest;whiteSpace=wrap;html=1;fontFamily=Helvetica;fontSize=12;fontStyle=1;horizontal=1;labelBackgroundColor=none;rounded=0;fontColor=#EEEEEE;" parent="vpXYMXgtCUjcUCC5rdgy-214" vertex="1">
          <mxGeometry y="26" width="236" height="26" as="geometry" />
        </mxCell>
        <mxCell id="vpXYMXgtCUjcUCC5rdgy-218" value="flight_id" style="text;fillColor=none;align=left;verticalAlign=top;spacingLeft=4;spacingRight=4;overflow=hidden;rotatable=0;points=[[0,0.5],[1,0.5]];portConstraint=eastwest;whiteSpace=wrap;html=1;fontFamily=Helvetica;fontSize=12;fontStyle=1;horizontal=1;labelBackgroundColor=none;rounded=0;fontColor=#EEEEEE;" parent="vpXYMXgtCUjcUCC5rdgy-214" vertex="1">
          <mxGeometry y="52" width="236" height="26" as="geometry" />
        </mxCell>
        <mxCell id="vpXYMXgtCUjcUCC5rdgy-223" value="passenger_id" style="text;fillColor=none;align=left;verticalAlign=top;spacingLeft=4;spacingRight=4;overflow=hidden;rotatable=0;points=[[0,0.5],[1,0.5]];portConstraint=eastwest;whiteSpace=wrap;html=1;fontFamily=Helvetica;fontSize=12;fontStyle=1;horizontal=1;labelBackgroundColor=none;rounded=0;fontColor=#EEEEEE;" parent="vpXYMXgtCUjcUCC5rdgy-214" vertex="1">
          <mxGeometry y="78" width="236" height="26" as="geometry" />
        </mxCell>
        <mxCell id="vpXYMXgtCUjcUCC5rdgy-222" value="status" style="text;fillColor=none;align=left;verticalAlign=top;spacingLeft=4;spacingRight=4;overflow=hidden;rotatable=0;points=[[0,0.5],[1,0.5]];portConstraint=eastwest;whiteSpace=wrap;html=1;fontFamily=Helvetica;fontSize=12;fontStyle=1;horizontal=1;labelBackgroundColor=none;rounded=0;fontColor=#EEEEEE;" parent="vpXYMXgtCUjcUCC5rdgy-214" vertex="1">
          <mxGeometry y="104" width="236" height="26" as="geometry" />
        </mxCell>
        <mxCell id="vpXYMXgtCUjcUCC5rdgy-221" value="booking_platform" style="text;fillColor=none;align=left;verticalAlign=top;spacingLeft=4;spacingRight=4;overflow=hidden;rotatable=0;points=[[0,0.5],[1,0.5]];portConstraint=eastwest;whiteSpace=wrap;html=1;fontFamily=Helvetica;fontSize=12;fontStyle=1;horizontal=1;labelBackgroundColor=none;rounded=0;fontColor=#EEEEEE;" parent="vpXYMXgtCUjcUCC5rdgy-214" vertex="1">
          <mxGeometry y="130" width="236" height="26" as="geometry" />
        </mxCell>
        <mxCell id="vpXYMXgtCUjcUCC5rdgy-220" value="ticket_price" style="text;fillColor=none;align=left;verticalAlign=top;spacingLeft=4;spacingRight=4;overflow=hidden;rotatable=0;points=[[0,0.5],[1,0.5]];portConstraint=eastwest;whiteSpace=wrap;html=1;fontFamily=Helvetica;fontSize=12;fontStyle=1;horizontal=1;labelBackgroundColor=none;rounded=0;fontColor=#EEEEEE;" parent="vpXYMXgtCUjcUCC5rdgy-214" vertex="1">
          <mxGeometry y="156" width="236" height="26" as="geometry" />
        </mxCell>
        <mxCell id="vpXYMXgtCUjcUCC5rdgy-219" value="created_at" style="text;fillColor=none;align=left;verticalAlign=top;spacingLeft=4;spacingRight=4;overflow=hidden;rotatable=0;points=[[0,0.5],[1,0.5]];portConstraint=eastwest;whiteSpace=wrap;html=1;fontFamily=Helvetica;fontSize=12;fontStyle=1;horizontal=1;labelBackgroundColor=none;rounded=0;fontColor=#EEEEEE;" parent="vpXYMXgtCUjcUCC5rdgy-214" vertex="1">
          <mxGeometry y="182" width="236" height="26" as="geometry" />
        </mxCell>
        <mxCell id="vpXYMXgtCUjcUCC5rdgy-224" value="updated_at" style="text;fillColor=none;align=left;verticalAlign=top;spacingLeft=4;spacingRight=4;overflow=hidden;rotatable=0;points=[[0,0.5],[1,0.5]];portConstraint=eastwest;whiteSpace=wrap;html=1;fontFamily=Helvetica;fontSize=12;fontStyle=1;horizontal=1;labelBackgroundColor=none;rounded=0;fontColor=#EEEEEE;" parent="vpXYMXgtCUjcUCC5rdgy-214" vertex="1">
          <mxGeometry y="208" width="236" height="26" as="geometry" />
        </mxCell>
        <mxCell id="vpXYMXgtCUjcUCC5rdgy-244" value="" style="endArrow=none;html=1;rounded=0;fontFamily=Helvetica;fontSize=12;fontColor=default;fontStyle=1;horizontal=1;entryX=0.462;entryY=0.041;entryDx=0;entryDy=0;entryPerimeter=0;labelBackgroundColor=none;strokeColor=#0B4D6A;" parent="vpXYMXgtCUjcUCC5rdgy-214" target="vpXYMXgtCUjcUCC5rdgy-217" edge="1">
          <mxGeometry width="50" height="50" relative="1" as="geometry">
            <mxPoint x="110" y="235" as="sourcePoint" />
            <mxPoint x="-64" y="210" as="targetPoint" />
          </mxGeometry>
        </mxCell>
        <mxCell id="vpXYMXgtCUjcUCC5rdgy-228" value="INT" style="text;whiteSpace=wrap;html=1;fontFamily=Helvetica;fontSize=12;fontStyle=1;horizontal=1;labelBackgroundColor=none;rounded=0;fontColor=#EEEEEE;" parent="1" vertex="1">
          <mxGeometry x="326" y="890.49" width="30" height="20" as="geometry" />
        </mxCell>
        <mxCell id="vpXYMXgtCUjcUCC5rdgy-229" value="INT" style="text;whiteSpace=wrap;html=1;fontFamily=Helvetica;fontSize=12;fontStyle=1;horizontal=1;labelBackgroundColor=none;rounded=0;fontColor=#EEEEEE;" parent="1" vertex="1">
          <mxGeometry x="326" y="916.49" width="30" height="20" as="geometry" />
        </mxCell>
        <mxCell id="vpXYMXgtCUjcUCC5rdgy-230" value="INT" style="text;whiteSpace=wrap;html=1;fontFamily=Helvetica;fontSize=12;fontStyle=1;horizontal=1;labelBackgroundColor=none;rounded=0;fontColor=#EEEEEE;" parent="1" vertex="1">
          <mxGeometry x="326" y="942.49" width="30" height="20" as="geometry" />
        </mxCell>
        <mxCell id="vpXYMXgtCUjcUCC5rdgy-231" style="edgeStyle=orthogonalEdgeStyle;rounded=0;orthogonalLoop=1;jettySize=auto;html=1;exitX=0.5;exitY=1;exitDx=0;exitDy=0;fontFamily=Helvetica;fontSize=12;fontColor=default;fontStyle=1;horizontal=1;labelBackgroundColor=none;strokeColor=#0B4D6A;" parent="1" source="vpXYMXgtCUjcUCC5rdgy-230" target="vpXYMXgtCUjcUCC5rdgy-230" edge="1">
          <mxGeometry relative="1" as="geometry" />
        </mxCell>
        <mxCell id="vpXYMXgtCUjcUCC5rdgy-232" value="VARCHAR" style="text;whiteSpace=wrap;html=1;fontFamily=Helvetica;fontSize=12;fontStyle=1;horizontal=1;labelBackgroundColor=none;rounded=0;fontColor=#EEEEEE;" parent="1" vertex="1">
          <mxGeometry x="326" y="969.49" width="90" height="30" as="geometry" />
        </mxCell>
        <mxCell id="vpXYMXgtCUjcUCC5rdgy-233" value="VARCHAR" style="text;whiteSpace=wrap;html=1;fontFamily=Helvetica;fontSize=12;fontStyle=1;horizontal=1;labelBackgroundColor=none;rounded=0;fontColor=#EEEEEE;" parent="1" vertex="1">
          <mxGeometry x="326" y="994.49" width="90" height="30" as="geometry" />
        </mxCell>
        <mxCell id="vpXYMXgtCUjcUCC5rdgy-234" value="DECIMAL(10,2)" style="text;whiteSpace=wrap;html=1;fontFamily=Helvetica;fontSize=12;fontStyle=1;horizontal=1;labelBackgroundColor=none;rounded=0;fontColor=#EEEEEE;" parent="1" vertex="1">
          <mxGeometry x="326" y="1021.49" width="90" height="24" as="geometry" />
        </mxCell>
        <mxCell id="vpXYMXgtCUjcUCC5rdgy-235" value="TIMESTAMP" style="text;whiteSpace=wrap;html=1;fontFamily=Helvetica;fontSize=12;fontStyle=1;horizontal=1;labelBackgroundColor=none;rounded=0;fontColor=#EEEEEE;" parent="1" vertex="1">
          <mxGeometry x="326" y="1045.49" width="100" height="27" as="geometry" />
        </mxCell>
        <mxCell id="vpXYMXgtCUjcUCC5rdgy-236" value="TIMESTAMP" style="text;whiteSpace=wrap;html=1;fontFamily=Helvetica;fontSize=12;fontStyle=1;horizontal=1;labelBackgroundColor=none;rounded=0;fontColor=#EEEEEE;" parent="1" vertex="1">
          <mxGeometry x="326" y="1071.49" width="100" height="27" as="geometry" />
        </mxCell>
        <mxCell id="vpXYMXgtCUjcUCC5rdgy-238" value="&lt;table&gt;&lt;tbody&gt;&lt;tr data-start=&quot;2348&quot; data-end=&quot;2388&quot;&gt;&lt;td data-start=&quot;2382&quot; data-end=&quot;2388&quot; data-col-size=&quot;sm&quot;&gt;PK&lt;/td&gt;&lt;/tr&gt;&lt;/tbody&gt;&lt;/table&gt;&lt;table&gt;&lt;tbody&gt;&lt;tr data-start=&quot;2389&quot; data-end=&quot;2426&quot;&gt;&lt;td data-start=&quot;2389&quot; data-end=&quot;2408&quot; data-col-size=&quot;sm&quot;&gt;&lt;/td&gt;&lt;/tr&gt;&lt;/tbody&gt;&lt;/table&gt;" style="text;whiteSpace=wrap;html=1;fontFamily=Helvetica;fontSize=12;fontStyle=1;horizontal=1;labelBackgroundColor=none;rounded=0;fontColor=#EEEEEE;" parent="1" vertex="1">
          <mxGeometry x="416" y="891.49" width="30" height="25" as="geometry" />
        </mxCell>
        <mxCell id="vpXYMXgtCUjcUCC5rdgy-239" value="FK" style="text;whiteSpace=wrap;html=1;fontFamily=Helvetica;fontSize=12;fontStyle=1;horizontal=1;align=center;labelBackgroundColor=none;rounded=0;fontColor=#EEEEEE;" parent="1" vertex="1">
          <mxGeometry x="416" y="916.49" width="30" height="35" as="geometry" />
        </mxCell>
        <mxCell id="vpXYMXgtCUjcUCC5rdgy-248" style="edgeStyle=orthogonalEdgeStyle;rounded=0;orthogonalLoop=1;jettySize=auto;html=1;exitX=1;exitY=0.5;exitDx=0;exitDy=0;entryX=1;entryY=0.5;entryDx=0;entryDy=0;fontFamily=Helvetica;fontSize=12;fontColor=default;fontStyle=1;horizontal=1;labelBackgroundColor=none;strokeColor=#0B4D6A;" parent="1" source="vpXYMXgtCUjcUCC5rdgy-240" target="vpXYMXgtCUjcUCC5rdgy-206" edge="1">
          <mxGeometry relative="1" as="geometry" />
        </mxCell>
        <mxCell id="vpXYMXgtCUjcUCC5rdgy-240" value="FK" style="text;whiteSpace=wrap;html=1;fontFamily=Helvetica;fontSize=12;fontStyle=1;horizontal=1;align=center;labelBackgroundColor=none;rounded=0;fontColor=#EEEEEE;" parent="1" vertex="1">
          <mxGeometry x="416" y="942.49" width="30" height="35" as="geometry" />
        </mxCell>
        <mxCell id="vpXYMXgtCUjcUCC5rdgy-246" value="" style="endArrow=none;html=1;rounded=0;fontFamily=Helvetica;fontSize=12;fontColor=default;fontStyle=1;horizontal=1;entryX=0;entryY=0;entryDx=0;entryDy=0;exitX=0.917;exitY=1.019;exitDx=0;exitDy=0;exitPerimeter=0;labelBackgroundColor=none;strokeColor=#0B4D6A;" parent="1" source="vpXYMXgtCUjcUCC5rdgy-236" target="vpXYMXgtCUjcUCC5rdgy-238" edge="1">
          <mxGeometry width="50" height="50" relative="1" as="geometry">
            <mxPoint x="407" y="1182.49" as="sourcePoint" />
            <mxPoint x="406" y="974.49" as="targetPoint" />
          </mxGeometry>
        </mxCell>
        <mxCell id="vpXYMXgtCUjcUCC5rdgy-247" style="edgeStyle=orthogonalEdgeStyle;rounded=0;orthogonalLoop=1;jettySize=auto;html=1;exitX=0.5;exitY=0;exitDx=0;exitDy=0;fontFamily=Helvetica;fontSize=12;fontColor=default;fontStyle=1;horizontal=1;labelBackgroundColor=none;entryX=1;entryY=0.5;entryDx=0;entryDy=0;strokeColor=#0B4D6A;" parent="1" source="vpXYMXgtCUjcUCC5rdgy-214" target="vpXYMXgtCUjcUCC5rdgy-125" edge="1">
          <mxGeometry relative="1" as="geometry">
            <mxPoint x="334" y="756" as="sourcePoint" />
            <mxPoint x="-80" y="620" as="targetPoint" />
            <Array as="points">
              <mxPoint x="328" y="756" />
              <mxPoint x="320" y="756" />
              <mxPoint x="320" y="780" />
              <mxPoint x="-30" y="780" />
              <mxPoint x="-30" y="670" />
              <mxPoint y="670" />
              <mxPoint y="615" />
            </Array>
          </mxGeometry>
        </mxCell>
        <mxCell id="vpXYMXgtCUjcUCC5rdgy-254" value="BoardingPass" style="swimlane;fontStyle=1;align=center;verticalAlign=top;childLayout=stackLayout;horizontal=1;startSize=26;horizontalStack=0;resizeParent=1;resizeParentMax=0;resizeLast=0;collapsible=1;marginBottom=0;whiteSpace=wrap;html=1;absoluteArcSize=0;fontFamily=Helvetica;fontSize=12;labelBackgroundColor=none;rounded=0;fillColor=#09555B;strokeColor=#BAC8D3;fontColor=#EEEEEE;" parent="1" vertex="1">
          <mxGeometry x="870" y="871" width="250" height="186" as="geometry" />
        </mxCell>
        <mxCell id="vpXYMXgtCUjcUCC5rdgy-255" value="boarding_pass_id" style="text;fillColor=none;align=left;verticalAlign=top;spacingLeft=4;spacingRight=4;overflow=hidden;rotatable=0;points=[[0,0.5],[1,0.5]];portConstraint=eastwest;whiteSpace=wrap;html=1;fontFamily=Helvetica;fontSize=12;fontStyle=1;horizontal=1;labelBackgroundColor=none;rounded=0;fontColor=#EEEEEE;" parent="vpXYMXgtCUjcUCC5rdgy-254" vertex="1">
          <mxGeometry y="26" width="250" height="26" as="geometry" />
        </mxCell>
        <mxCell id="vpXYMXgtCUjcUCC5rdgy-263" value="" style="endArrow=none;html=1;rounded=0;fontFamily=Helvetica;fontSize=12;fontColor=default;fontStyle=1;horizontal=1;entryX=0.507;entryY=0.015;entryDx=0;entryDy=0;entryPerimeter=0;exitX=0.508;exitY=1.032;exitDx=0;exitDy=0;exitPerimeter=0;labelBackgroundColor=none;strokeColor=#0B4D6A;" parent="vpXYMXgtCUjcUCC5rdgy-254" edge="1">
          <mxGeometry width="50" height="50" relative="1" as="geometry">
            <mxPoint x="120.25000000000023" y="182.44200000000012" as="sourcePoint" />
            <mxPoint x="120" y="26.0000000000001" as="targetPoint" />
          </mxGeometry>
        </mxCell>
        <mxCell id="vpXYMXgtCUjcUCC5rdgy-256" value="booking_id" style="text;fillColor=none;align=left;verticalAlign=top;spacingLeft=4;spacingRight=4;overflow=hidden;rotatable=0;points=[[0,0.5],[1,0.5]];portConstraint=eastwest;whiteSpace=wrap;html=1;fontFamily=Helvetica;fontSize=12;fontStyle=1;horizontal=1;labelBackgroundColor=none;rounded=0;fontColor=#EEEEEE;" parent="vpXYMXgtCUjcUCC5rdgy-254" vertex="1">
          <mxGeometry y="52" width="250" height="26" as="geometry" />
        </mxCell>
        <mxCell id="vpXYMXgtCUjcUCC5rdgy-257" value="seat" style="text;fillColor=none;align=left;verticalAlign=top;spacingLeft=4;spacingRight=4;overflow=hidden;rotatable=0;points=[[0,0.5],[1,0.5]];portConstraint=eastwest;whiteSpace=wrap;html=1;fontFamily=Helvetica;fontSize=12;fontStyle=1;horizontal=1;labelBackgroundColor=none;rounded=0;fontColor=#EEEEEE;" parent="vpXYMXgtCUjcUCC5rdgy-254" vertex="1">
          <mxGeometry y="78" width="250" height="26" as="geometry" />
        </mxCell>
        <mxCell id="vpXYMXgtCUjcUCC5rdgy-258" value="boarding_time" style="text;fillColor=none;align=left;verticalAlign=top;spacingLeft=4;spacingRight=4;overflow=hidden;rotatable=0;points=[[0,0.5],[1,0.5]];portConstraint=eastwest;whiteSpace=wrap;html=1;fontFamily=Helvetica;fontSize=12;fontStyle=1;horizontal=1;labelBackgroundColor=none;rounded=0;fontColor=#EEEEEE;" parent="vpXYMXgtCUjcUCC5rdgy-254" vertex="1">
          <mxGeometry y="104" width="250" height="30" as="geometry" />
        </mxCell>
        <mxCell id="vpXYMXgtCUjcUCC5rdgy-259" value="created_at" style="text;fillColor=none;align=left;verticalAlign=top;spacingLeft=4;spacingRight=4;overflow=hidden;rotatable=0;points=[[0,0.5],[1,0.5]];portConstraint=eastwest;whiteSpace=wrap;html=1;fontFamily=Helvetica;fontSize=12;fontStyle=1;horizontal=1;labelBackgroundColor=none;rounded=0;fontColor=#EEEEEE;" parent="vpXYMXgtCUjcUCC5rdgy-254" vertex="1">
          <mxGeometry y="134" width="250" height="26" as="geometry" />
        </mxCell>
        <mxCell id="vpXYMXgtCUjcUCC5rdgy-260" value="updated_at" style="text;fillColor=none;align=left;verticalAlign=top;spacingLeft=4;spacingRight=4;overflow=hidden;rotatable=0;points=[[0,0.5],[1,0.5]];portConstraint=eastwest;whiteSpace=wrap;html=1;fontFamily=Helvetica;fontSize=12;fontStyle=1;horizontal=1;labelBackgroundColor=none;rounded=0;fontColor=#EEEEEE;" parent="vpXYMXgtCUjcUCC5rdgy-254" vertex="1">
          <mxGeometry y="160" width="250" height="26" as="geometry" />
        </mxCell>
        <mxCell id="vpXYMXgtCUjcUCC5rdgy-272" value="" style="endArrow=none;html=1;rounded=0;fontFamily=Helvetica;fontSize=12;fontColor=default;fontStyle=1;horizontal=1;entryX=0.841;entryY=0.001;entryDx=0;entryDy=0;entryPerimeter=0;exitX=0.838;exitY=1.003;exitDx=0;exitDy=0;exitPerimeter=0;labelBackgroundColor=none;strokeColor=#0B4D6A;" parent="vpXYMXgtCUjcUCC5rdgy-254" source="vpXYMXgtCUjcUCC5rdgy-260" target="vpXYMXgtCUjcUCC5rdgy-255" edge="1">
          <mxGeometry width="50" height="50" relative="1" as="geometry">
            <mxPoint x="200.25000000000023" y="201.942" as="sourcePoint" />
            <mxPoint x="200" y="45.5" as="targetPoint" />
          </mxGeometry>
        </mxCell>
        <mxCell id="vpXYMXgtCUjcUCC5rdgy-264" value="INT" style="text;whiteSpace=wrap;html=1;fontFamily=Helvetica;fontSize=12;fontStyle=1;horizontal=1;labelBackgroundColor=none;rounded=0;fontColor=#EEEEEE;" parent="1" vertex="1">
          <mxGeometry x="990" y="897.5" width="30" height="20" as="geometry" />
        </mxCell>
        <mxCell id="vpXYMXgtCUjcUCC5rdgy-265" value="INT" style="text;whiteSpace=wrap;html=1;fontFamily=Helvetica;fontSize=12;fontStyle=1;horizontal=1;labelBackgroundColor=none;rounded=0;fontColor=#EEEEEE;" parent="1" vertex="1">
          <mxGeometry x="990" y="921" width="30" height="20" as="geometry" />
        </mxCell>
        <mxCell id="vpXYMXgtCUjcUCC5rdgy-266" value="&lt;table&gt;&lt;tbody&gt;&lt;tr&gt;&lt;td data-start=&quot;3338&quot; data-end=&quot;3354&quot; data-col-size=&quot;sm&quot;&gt;&lt;/td&gt;&lt;/tr&gt;&lt;/tbody&gt;&lt;/table&gt;&lt;table&gt;&lt;tbody&gt;&lt;tr&gt;&lt;td data-start=&quot;3354&quot; data-end=&quot;3369&quot; data-col-size=&quot;sm&quot;&gt;VARCHAR(5)&lt;/td&gt;&lt;/tr&gt;&lt;/tbody&gt;&lt;/table&gt;" style="text;whiteSpace=wrap;html=1;fontFamily=Helvetica;fontSize=12;fontStyle=1;horizontal=1;labelBackgroundColor=none;rounded=0;fontColor=#EEEEEE;" parent="1" vertex="1">
          <mxGeometry x="990" y="937" width="110" height="30" as="geometry" />
        </mxCell>
        <mxCell id="vpXYMXgtCUjcUCC5rdgy-267" value="TIMESTAMP" style="text;whiteSpace=wrap;html=1;fontFamily=Helvetica;fontSize=12;fontStyle=1;horizontal=1;labelBackgroundColor=none;rounded=0;fontColor=#EEEEEE;" parent="1" vertex="1">
          <mxGeometry x="990" y="966.5" width="100" height="30.5" as="geometry" />
        </mxCell>
        <mxCell id="vpXYMXgtCUjcUCC5rdgy-268" value="TIMESTAMP" style="text;whiteSpace=wrap;html=1;fontFamily=Helvetica;fontSize=12;fontStyle=1;horizontal=1;labelBackgroundColor=none;rounded=0;fontColor=#EEEEEE;" parent="1" vertex="1">
          <mxGeometry x="990" y="997" width="100" height="40" as="geometry" />
        </mxCell>
        <mxCell id="vpXYMXgtCUjcUCC5rdgy-269" value="TIMESTAMP" style="text;whiteSpace=wrap;html=1;fontFamily=Helvetica;fontSize=12;fontStyle=1;horizontal=1;labelBackgroundColor=none;rounded=0;fontColor=#EEEEEE;" parent="1" vertex="1">
          <mxGeometry x="995" y="1030" width="100" height="40" as="geometry" />
        </mxCell>
        <mxCell id="vpXYMXgtCUjcUCC5rdgy-270" value="&lt;table style=&quot;forced-color-adjust: none; color: rgb(0, 0, 0); font-family: Helvetica; font-size: 12px; font-style: normal; font-variant-ligatures: normal; font-variant-caps: normal; font-weight: 700; letter-spacing: normal; orphans: 2; text-align: left; text-transform: none; widows: 2; word-spacing: 0px; -webkit-text-stroke-width: 0px; white-space: normal; text-decoration-thickness: initial; text-decoration-style: initial; text-decoration-color: initial;&quot;&gt;&lt;tbody style=&quot;forced-color-adjust: none;&quot;&gt;&lt;tr data-end=&quot;2388&quot; data-start=&quot;2348&quot; style=&quot;forced-color-adjust: none;&quot;&gt;&lt;td data-col-size=&quot;sm&quot; data-end=&quot;2388&quot; data-start=&quot;2382&quot; style=&quot;forced-color-adjust: none;&quot;&gt;&lt;span style=&quot;background-color: light-dark(#ffffff, var(--ge-dark-color, #121212));&quot;&gt;PK&lt;/span&gt;&lt;/td&gt;&lt;/tr&gt;&lt;/tbody&gt;&lt;/table&gt;&lt;table style=&quot;forced-color-adjust: none; color: rgb(0, 0, 0); font-family: Helvetica; font-size: 12px; font-style: normal; font-variant-ligatures: normal; font-variant-caps: normal; font-weight: 700; letter-spacing: normal; orphans: 2; text-align: left; text-transform: none; widows: 2; word-spacing: 0px; -webkit-text-stroke-width: 0px; white-space: normal; text-decoration-thickness: initial; text-decoration-style: initial; text-decoration-color: initial; background-color: rgb(236, 236, 236);&quot;&gt;&lt;tbody style=&quot;forced-color-adjust: none;&quot;&gt;&lt;tr data-end=&quot;2426&quot; data-start=&quot;2389&quot; style=&quot;forced-color-adjust: none;&quot;&gt;&lt;td data-col-size=&quot;sm&quot; data-end=&quot;2408&quot; data-start=&quot;2389&quot; style=&quot;forced-color-adjust: none;&quot;&gt;&lt;/td&gt;&lt;/tr&gt;&lt;/tbody&gt;&lt;/table&gt;" style="text;whiteSpace=wrap;html=1;fontFamily=Helvetica;fontSize=12;fontStyle=1;horizontal=1;labelBackgroundColor=none;rounded=0;fontColor=#EEEEEE;" parent="1" vertex="1">
          <mxGeometry x="1090" y="891" width="60" height="50" as="geometry" />
        </mxCell>
        <mxCell id="vpXYMXgtCUjcUCC5rdgy-271" value="FK" style="text;whiteSpace=wrap;html=1;fontFamily=Helvetica;fontSize=12;fontStyle=1;horizontal=1;align=center;labelBackgroundColor=none;rounded=0;fontColor=#EEEEEE;" parent="1" vertex="1">
          <mxGeometry x="1090" y="917" width="30" height="35" as="geometry" />
        </mxCell>
        <mxCell id="vpXYMXgtCUjcUCC5rdgy-273" style="edgeStyle=orthogonalEdgeStyle;rounded=0;orthogonalLoop=1;jettySize=auto;html=1;exitX=0;exitY=0.5;exitDx=0;exitDy=0;entryX=1;entryY=0.5;entryDx=0;entryDy=0;fontFamily=Helvetica;fontSize=12;fontColor=default;fontStyle=1;horizontal=1;labelBackgroundColor=none;strokeColor=#0B4D6A;" parent="1" source="vpXYMXgtCUjcUCC5rdgy-256" target="vpXYMXgtCUjcUCC5rdgy-238" edge="1">
          <mxGeometry relative="1" as="geometry" />
        </mxCell>
        <mxCell id="vpXYMXgtCUjcUCC5rdgy-275" value="Baggage" style="swimlane;fontStyle=1;align=center;verticalAlign=top;childLayout=stackLayout;horizontal=1;startSize=26;horizontalStack=0;resizeParent=1;resizeParentMax=0;resizeLast=0;collapsible=1;marginBottom=0;whiteSpace=wrap;html=1;absoluteArcSize=0;fontFamily=Helvetica;fontSize=12;labelBackgroundColor=none;rounded=0;fillColor=#09555B;strokeColor=#BAC8D3;fontColor=#EEEEEE;" parent="1" vertex="1">
          <mxGeometry x="640" y="510" width="210" height="156" as="geometry" />
        </mxCell>
        <mxCell id="vpXYMXgtCUjcUCC5rdgy-276" value="baggage_id" style="text;fillColor=none;align=left;verticalAlign=top;spacingLeft=4;spacingRight=4;overflow=hidden;rotatable=0;points=[[0,0.5],[1,0.5]];portConstraint=eastwest;whiteSpace=wrap;html=1;fontFamily=Helvetica;fontSize=12;fontStyle=1;horizontal=1;labelBackgroundColor=none;rounded=0;fontColor=#EEEEEE;" parent="vpXYMXgtCUjcUCC5rdgy-275" vertex="1">
          <mxGeometry y="26" width="210" height="26" as="geometry" />
        </mxCell>
        <mxCell id="vpXYMXgtCUjcUCC5rdgy-278" value="booking_id" style="text;fillColor=none;align=left;verticalAlign=top;spacingLeft=4;spacingRight=4;overflow=hidden;rotatable=0;points=[[0,0.5],[1,0.5]];portConstraint=eastwest;whiteSpace=wrap;html=1;fontFamily=Helvetica;fontSize=12;fontStyle=1;horizontal=1;labelBackgroundColor=none;rounded=0;fontColor=#EEEEEE;" parent="vpXYMXgtCUjcUCC5rdgy-275" vertex="1">
          <mxGeometry y="52" width="210" height="26" as="geometry" />
        </mxCell>
        <mxCell id="vpXYMXgtCUjcUCC5rdgy-281" value="weight_kg" style="text;fillColor=none;align=left;verticalAlign=top;spacingLeft=4;spacingRight=4;overflow=hidden;rotatable=0;points=[[0,0.5],[1,0.5]];portConstraint=eastwest;whiteSpace=wrap;html=1;fontFamily=Helvetica;fontSize=12;fontStyle=1;horizontal=1;labelBackgroundColor=none;rounded=0;fontColor=#EEEEEE;" parent="vpXYMXgtCUjcUCC5rdgy-275" vertex="1">
          <mxGeometry y="78" width="210" height="26" as="geometry" />
        </mxCell>
        <mxCell id="vpXYMXgtCUjcUCC5rdgy-280" value="created_at" style="text;fillColor=none;align=left;verticalAlign=top;spacingLeft=4;spacingRight=4;overflow=hidden;rotatable=0;points=[[0,0.5],[1,0.5]];portConstraint=eastwest;whiteSpace=wrap;html=1;fontFamily=Helvetica;fontSize=12;fontStyle=1;horizontal=1;labelBackgroundColor=none;rounded=0;fontColor=#EEEEEE;" parent="vpXYMXgtCUjcUCC5rdgy-275" vertex="1">
          <mxGeometry y="104" width="210" height="26" as="geometry" />
        </mxCell>
        <mxCell id="vpXYMXgtCUjcUCC5rdgy-279" value="updated_at" style="text;fillColor=none;align=left;verticalAlign=top;spacingLeft=4;spacingRight=4;overflow=hidden;rotatable=0;points=[[0,0.5],[1,0.5]];portConstraint=eastwest;whiteSpace=wrap;html=1;fontFamily=Helvetica;fontSize=12;fontStyle=1;horizontal=1;labelBackgroundColor=none;rounded=0;fontColor=#EEEEEE;" parent="vpXYMXgtCUjcUCC5rdgy-275" vertex="1">
          <mxGeometry y="130" width="210" height="26" as="geometry" />
        </mxCell>
        <mxCell id="vpXYMXgtCUjcUCC5rdgy-290" value="" style="endArrow=none;html=1;rounded=0;fontFamily=Helvetica;fontSize=12;fontColor=default;fontStyle=1;horizontal=1;exitX=0.381;exitY=1.006;exitDx=0;exitDy=0;exitPerimeter=0;labelBackgroundColor=none;strokeColor=#0B4D6A;" parent="vpXYMXgtCUjcUCC5rdgy-275" source="vpXYMXgtCUjcUCC5rdgy-279" edge="1">
          <mxGeometry width="50" height="50" relative="1" as="geometry">
            <mxPoint x="-60" y="280" as="sourcePoint" />
            <mxPoint x="80" y="25" as="targetPoint" />
          </mxGeometry>
        </mxCell>
        <mxCell id="vpXYMXgtCUjcUCC5rdgy-282" value="INT" style="text;whiteSpace=wrap;html=1;fontFamily=Helvetica;fontSize=12;fontStyle=1;horizontal=1;labelBackgroundColor=none;rounded=0;fontColor=#EEEEEE;" parent="1" vertex="1">
          <mxGeometry x="720" y="540" width="30" height="20" as="geometry" />
        </mxCell>
        <mxCell id="vpXYMXgtCUjcUCC5rdgy-283" value="INT" style="text;whiteSpace=wrap;html=1;fontFamily=Helvetica;fontSize=12;fontStyle=1;horizontal=1;labelBackgroundColor=none;rounded=0;fontColor=#EEEEEE;" parent="1" vertex="1">
          <mxGeometry x="720" y="565" width="30" height="20" as="geometry" />
        </mxCell>
        <mxCell id="vpXYMXgtCUjcUCC5rdgy-285" value="DECIMAL(5,2)" style="text;whiteSpace=wrap;html=1;fontFamily=Helvetica;fontSize=12;fontStyle=1;horizontal=1;labelBackgroundColor=none;rounded=0;fontColor=#EEEEEE;" parent="1" vertex="1">
          <mxGeometry x="720" y="589" width="110" height="25" as="geometry" />
        </mxCell>
        <mxCell id="vpXYMXgtCUjcUCC5rdgy-286" value="TIMESTAMP" style="text;whiteSpace=wrap;html=1;fontFamily=Helvetica;fontSize=12;fontStyle=1;horizontal=1;labelBackgroundColor=none;rounded=0;fontColor=#EEEEEE;" parent="1" vertex="1">
          <mxGeometry x="720" y="614" width="100" height="27" as="geometry" />
        </mxCell>
        <mxCell id="vpXYMXgtCUjcUCC5rdgy-287" value="TIMESTAMP" style="text;whiteSpace=wrap;html=1;fontFamily=Helvetica;fontSize=12;fontStyle=1;horizontal=1;labelBackgroundColor=none;rounded=0;fontColor=#EEEEEE;" parent="1" vertex="1">
          <mxGeometry x="720" y="640" width="100" height="27" as="geometry" />
        </mxCell>
        <mxCell id="vpXYMXgtCUjcUCC5rdgy-288" value="PK" style="text;whiteSpace=wrap;html=1;fontFamily=Helvetica;fontSize=12;fontStyle=1;horizontal=1;labelBackgroundColor=none;rounded=0;fontColor=#EEEEEE;" parent="1" vertex="1">
          <mxGeometry x="810" y="537" width="40" height="40" as="geometry" />
        </mxCell>
        <mxCell id="vpXYMXgtCUjcUCC5rdgy-289" value="FK" style="text;whiteSpace=wrap;html=1;fontFamily=Helvetica;fontSize=12;fontStyle=1;horizontal=1;align=center;labelBackgroundColor=none;rounded=0;fontColor=#EEEEEE;" parent="1" vertex="1">
          <mxGeometry x="810" y="560" width="40" height="30" as="geometry" />
        </mxCell>
        <mxCell id="vpXYMXgtCUjcUCC5rdgy-292" value="" style="endArrow=none;html=1;rounded=0;fontFamily=Helvetica;fontSize=12;fontColor=default;fontStyle=1;horizontal=1;entryX=0.808;entryY=0.032;entryDx=0;entryDy=0;entryPerimeter=0;exitX=0.903;exitY=0.994;exitDx=0;exitDy=0;exitPerimeter=0;labelBackgroundColor=none;strokeColor=#0B4D6A;" parent="1" source="vpXYMXgtCUjcUCC5rdgy-287" target="vpXYMXgtCUjcUCC5rdgy-276" edge="1">
          <mxGeometry width="50" height="50" relative="1" as="geometry">
            <mxPoint x="860" y="660" as="sourcePoint" />
            <mxPoint x="910" y="610" as="targetPoint" />
          </mxGeometry>
        </mxCell>
        <mxCell id="vpXYMXgtCUjcUCC5rdgy-294" value="Classname" style="swimlane;fontStyle=1;align=center;verticalAlign=top;childLayout=stackLayout;horizontal=1;startSize=26;horizontalStack=0;resizeParent=1;resizeParentMax=0;resizeLast=0;collapsible=1;marginBottom=0;whiteSpace=wrap;html=1;absoluteArcSize=0;fontFamily=Helvetica;fontSize=12;labelBackgroundColor=none;rounded=0;fillColor=#09555B;strokeColor=#BAC8D3;fontColor=#EEEEEE;" parent="1" vertex="1">
          <mxGeometry x="870" y="50" width="260" height="182" as="geometry" />
        </mxCell>
        <mxCell id="vpXYMXgtCUjcUCC5rdgy-303" value="&lt;table&gt;&lt;tbody&gt;&lt;tr&gt;&lt;td data-col-size=&quot;sm&quot; data-end=&quot;3913&quot; data-start=&quot;3891&quot;&gt;baggage_checking_id&lt;/td&gt;&lt;/tr&gt;&lt;/tbody&gt;&lt;/table&gt;&lt;table&gt;&lt;tbody&gt;&lt;tr&gt;&lt;td data-col-size=&quot;sm&quot; data-end=&quot;3924&quot; data-start=&quot;3913&quot;&gt;&lt;/td&gt;&lt;/tr&gt;&lt;/tbody&gt;&lt;/table&gt;" style="text;fillColor=none;align=left;verticalAlign=top;spacingLeft=4;spacingRight=4;overflow=hidden;rotatable=0;points=[[0,0.5],[1,0.5]];portConstraint=eastwest;whiteSpace=wrap;html=1;fontFamily=Helvetica;fontSize=12;fontStyle=1;horizontal=1;labelBackgroundColor=none;rounded=0;fontColor=#EEEEEE;" parent="vpXYMXgtCUjcUCC5rdgy-294" vertex="1">
          <mxGeometry y="26" width="260" height="26" as="geometry" />
        </mxCell>
        <mxCell id="vpXYMXgtCUjcUCC5rdgy-302" value="baggage_id" style="text;fillColor=none;align=left;verticalAlign=top;spacingLeft=4;spacingRight=4;overflow=hidden;rotatable=0;points=[[0,0.5],[1,0.5]];portConstraint=eastwest;whiteSpace=wrap;html=1;fontFamily=Helvetica;fontSize=12;fontStyle=1;horizontal=1;labelBackgroundColor=none;rounded=0;fontColor=#EEEEEE;" parent="vpXYMXgtCUjcUCC5rdgy-294" vertex="1">
          <mxGeometry y="52" width="260" height="26" as="geometry" />
        </mxCell>
        <mxCell id="vpXYMXgtCUjcUCC5rdgy-301" value="passenger_id" style="text;fillColor=none;align=left;verticalAlign=top;spacingLeft=4;spacingRight=4;overflow=hidden;rotatable=0;points=[[0,0.5],[1,0.5]];portConstraint=eastwest;whiteSpace=wrap;html=1;fontFamily=Helvetica;fontSize=12;fontStyle=1;horizontal=1;labelBackgroundColor=none;rounded=0;fontColor=#EEEEEE;" parent="vpXYMXgtCUjcUCC5rdgy-294" vertex="1">
          <mxGeometry y="78" width="260" height="26" as="geometry" />
        </mxCell>
        <mxCell id="vpXYMXgtCUjcUCC5rdgy-300" value="check_results" style="text;fillColor=none;align=left;verticalAlign=top;spacingLeft=4;spacingRight=4;overflow=hidden;rotatable=0;points=[[0,0.5],[1,0.5]];portConstraint=eastwest;whiteSpace=wrap;html=1;fontFamily=Helvetica;fontSize=12;fontStyle=1;horizontal=1;labelBackgroundColor=none;rounded=0;fontColor=#EEEEEE;" parent="vpXYMXgtCUjcUCC5rdgy-294" vertex="1">
          <mxGeometry y="104" width="260" height="26" as="geometry" />
        </mxCell>
        <mxCell id="vpXYMXgtCUjcUCC5rdgy-299" value="created_at" style="text;fillColor=none;align=left;verticalAlign=top;spacingLeft=4;spacingRight=4;overflow=hidden;rotatable=0;points=[[0,0.5],[1,0.5]];portConstraint=eastwest;whiteSpace=wrap;html=1;fontFamily=Helvetica;fontSize=12;fontStyle=1;horizontal=1;labelBackgroundColor=none;rounded=0;fontColor=#EEEEEE;" parent="vpXYMXgtCUjcUCC5rdgy-294" vertex="1">
          <mxGeometry y="130" width="260" height="26" as="geometry" />
        </mxCell>
        <mxCell id="vpXYMXgtCUjcUCC5rdgy-298" value="updated_at" style="text;fillColor=none;align=left;verticalAlign=top;spacingLeft=4;spacingRight=4;overflow=hidden;rotatable=0;points=[[0,0.5],[1,0.5]];portConstraint=eastwest;whiteSpace=wrap;html=1;fontFamily=Helvetica;fontSize=12;fontStyle=1;horizontal=1;labelBackgroundColor=none;rounded=0;fontColor=#EEEEEE;" parent="vpXYMXgtCUjcUCC5rdgy-294" vertex="1">
          <mxGeometry y="156" width="260" height="26" as="geometry" />
        </mxCell>
        <mxCell id="vpXYMXgtCUjcUCC5rdgy-313" value="" style="endArrow=none;html=1;rounded=0;fontFamily=Helvetica;fontSize=12;fontColor=default;fontStyle=1;horizontal=1;entryX=0.531;entryY=0.012;entryDx=0;entryDy=0;entryPerimeter=0;exitX=0.529;exitY=1.038;exitDx=0;exitDy=0;exitPerimeter=0;labelBackgroundColor=none;strokeColor=#0B4D6A;" parent="vpXYMXgtCUjcUCC5rdgy-294" source="vpXYMXgtCUjcUCC5rdgy-298" target="vpXYMXgtCUjcUCC5rdgy-303" edge="1">
          <mxGeometry width="50" height="50" relative="1" as="geometry">
            <mxPoint x="120" y="150" as="sourcePoint" />
            <mxPoint x="170" y="100" as="targetPoint" />
          </mxGeometry>
        </mxCell>
        <mxCell id="vpXYMXgtCUjcUCC5rdgy-314" value="" style="endArrow=none;html=1;rounded=0;fontFamily=Helvetica;fontSize=12;fontColor=default;fontStyle=1;horizontal=1;entryX=0.832;entryY=0.012;entryDx=0;entryDy=0;entryPerimeter=0;exitX=0.836;exitY=1.046;exitDx=0;exitDy=0;exitPerimeter=0;labelBackgroundColor=none;strokeColor=#0B4D6A;" parent="vpXYMXgtCUjcUCC5rdgy-294" source="vpXYMXgtCUjcUCC5rdgy-298" target="vpXYMXgtCUjcUCC5rdgy-303" edge="1">
          <mxGeometry width="50" height="50" relative="1" as="geometry">
            <mxPoint x="120" y="150" as="sourcePoint" />
            <mxPoint x="170" y="100" as="targetPoint" />
          </mxGeometry>
        </mxCell>
        <mxCell id="vpXYMXgtCUjcUCC5rdgy-304" value="INT" style="text;whiteSpace=wrap;html=1;fontFamily=Helvetica;fontSize=12;fontStyle=1;horizontal=1;labelBackgroundColor=none;rounded=0;fontColor=#EEEEEE;" parent="1" vertex="1">
          <mxGeometry x="1010" y="76" width="30" height="21" as="geometry" />
        </mxCell>
        <mxCell id="vpXYMXgtCUjcUCC5rdgy-305" value="INT" style="text;whiteSpace=wrap;html=1;fontFamily=Helvetica;fontSize=12;fontStyle=1;horizontal=1;labelBackgroundColor=none;rounded=0;fontColor=#EEEEEE;" parent="1" vertex="1">
          <mxGeometry x="1010" y="97" width="30" height="21" as="geometry" />
        </mxCell>
        <mxCell id="vpXYMXgtCUjcUCC5rdgy-306" value="INT" style="text;whiteSpace=wrap;html=1;fontFamily=Helvetica;fontSize=12;fontStyle=1;horizontal=1;labelBackgroundColor=none;rounded=0;fontColor=#EEEEEE;" parent="1" vertex="1">
          <mxGeometry x="1010" y="127" width="30" height="21" as="geometry" />
        </mxCell>
        <mxCell id="vpXYMXgtCUjcUCC5rdgy-307" value="VARCHAR" style="text;whiteSpace=wrap;html=1;fontFamily=Helvetica;fontSize=12;fontStyle=1;horizontal=1;labelBackgroundColor=none;rounded=0;fontColor=#EEEEEE;" parent="1" vertex="1">
          <mxGeometry x="1010" y="149" width="70" height="30" as="geometry" />
        </mxCell>
        <mxCell id="vpXYMXgtCUjcUCC5rdgy-308" value="TIMESTAMP" style="text;whiteSpace=wrap;html=1;fontFamily=Helvetica;fontSize=12;fontStyle=1;horizontal=1;labelBackgroundColor=none;rounded=0;fontColor=#EEEEEE;" parent="1" vertex="1">
          <mxGeometry x="1010" y="177" width="80" height="20" as="geometry" />
        </mxCell>
        <mxCell id="vpXYMXgtCUjcUCC5rdgy-309" value="TIMESTAMP" style="text;whiteSpace=wrap;html=1;fontFamily=Helvetica;fontSize=12;fontStyle=1;horizontal=1;labelBackgroundColor=none;rounded=0;fontColor=#EEEEEE;" parent="1" vertex="1">
          <mxGeometry x="1010" y="204" width="100" height="40" as="geometry" />
        </mxCell>
        <mxCell id="vpXYMXgtCUjcUCC5rdgy-310" value="PK" style="text;whiteSpace=wrap;html=1;fontFamily=Helvetica;fontSize=12;fontStyle=1;horizontal=1;labelBackgroundColor=none;rounded=0;fontColor=#EEEEEE;" parent="1" vertex="1">
          <mxGeometry x="1090" y="76" width="30" height="21" as="geometry" />
        </mxCell>
        <mxCell id="vpXYMXgtCUjcUCC5rdgy-336" style="edgeStyle=orthogonalEdgeStyle;rounded=0;orthogonalLoop=1;jettySize=auto;html=1;entryX=1;entryY=0.25;entryDx=0;entryDy=0;fontFamily=Helvetica;fontSize=12;fontColor=default;fontStyle=1;horizontal=1;labelBackgroundColor=none;exitX=0;exitY=1;exitDx=0;exitDy=0;strokeColor=#0B4D6A;" parent="1" source="vpXYMXgtCUjcUCC5rdgy-309" target="vpXYMXgtCUjcUCC5rdgy-288" edge="1">
          <mxGeometry relative="1" as="geometry">
            <mxPoint x="790" y="250" as="sourcePoint" />
            <Array as="points">
              <mxPoint x="900" y="244" />
              <mxPoint x="900" y="320" />
              <mxPoint x="920" y="320" />
              <mxPoint x="920" y="547" />
            </Array>
          </mxGeometry>
        </mxCell>
        <mxCell id="vpXYMXgtCUjcUCC5rdgy-311" value="FK" style="text;whiteSpace=wrap;html=1;fontFamily=Helvetica;fontSize=12;fontStyle=1;horizontal=1;labelBackgroundColor=none;rounded=0;fontColor=#EEEEEE;" parent="1" vertex="1">
          <mxGeometry x="1090" y="97" width="40" height="20" as="geometry" />
        </mxCell>
        <mxCell id="vpXYMXgtCUjcUCC5rdgy-312" value="FK" style="text;whiteSpace=wrap;html=1;fontFamily=Helvetica;fontSize=12;fontStyle=1;horizontal=1;labelBackgroundColor=none;rounded=0;fontColor=#EEEEEE;" parent="1" vertex="1">
          <mxGeometry x="1090" y="127" width="30" height="20" as="geometry" />
        </mxCell>
        <mxCell id="vpXYMXgtCUjcUCC5rdgy-316" style="edgeStyle=orthogonalEdgeStyle;rounded=0;orthogonalLoop=1;jettySize=auto;html=1;exitX=0;exitY=0.5;exitDx=0;exitDy=0;entryX=1;entryY=0.5;entryDx=0;entryDy=0;fontFamily=Helvetica;fontSize=12;fontColor=default;fontStyle=1;horizontal=1;labelBackgroundColor=none;strokeColor=#0B4D6A;" parent="1" source="vpXYMXgtCUjcUCC5rdgy-301" target="vpXYMXgtCUjcUCC5rdgy-206" edge="1">
          <mxGeometry relative="1" as="geometry">
            <Array as="points">
              <mxPoint x="630" y="331" />
              <mxPoint x="630" y="398" />
            </Array>
          </mxGeometry>
        </mxCell>
        <mxCell id="vpXYMXgtCUjcUCC5rdgy-317" value="Classname" style="swimlane;fontStyle=1;align=center;verticalAlign=top;childLayout=stackLayout;horizontal=1;startSize=26;horizontalStack=0;resizeParent=1;resizeParentMax=0;resizeLast=0;collapsible=1;marginBottom=0;whiteSpace=wrap;html=1;absoluteArcSize=0;fontFamily=Helvetica;fontSize=12;labelBackgroundColor=none;rounded=0;fillColor=#09555B;strokeColor=#BAC8D3;fontColor=#EEEEEE;" parent="1" vertex="1">
          <mxGeometry x="570" y="-180" width="270" height="156" as="geometry" />
        </mxCell>
        <mxCell id="vpXYMXgtCUjcUCC5rdgy-318" value="security_check_id" style="text;fillColor=none;align=left;verticalAlign=top;spacingLeft=4;spacingRight=4;overflow=hidden;rotatable=0;points=[[0,0.5],[1,0.5]];portConstraint=eastwest;whiteSpace=wrap;html=1;fontFamily=Helvetica;fontSize=12;fontStyle=1;horizontal=1;labelBackgroundColor=none;rounded=0;fontColor=#EEEEEE;" parent="vpXYMXgtCUjcUCC5rdgy-317" vertex="1">
          <mxGeometry y="26" width="270" height="26" as="geometry" />
        </mxCell>
        <mxCell id="vpXYMXgtCUjcUCC5rdgy-324" value="passenger_id" style="text;fillColor=none;align=left;verticalAlign=top;spacingLeft=4;spacingRight=4;overflow=hidden;rotatable=0;points=[[0,0.5],[1,0.5]];portConstraint=eastwest;whiteSpace=wrap;html=1;fontFamily=Helvetica;fontSize=12;fontStyle=1;horizontal=1;labelBackgroundColor=none;rounded=0;fontColor=#EEEEEE;" parent="vpXYMXgtCUjcUCC5rdgy-317" vertex="1">
          <mxGeometry y="52" width="270" height="26" as="geometry" />
        </mxCell>
        <mxCell id="vpXYMXgtCUjcUCC5rdgy-323" value="check_results" style="text;fillColor=none;align=left;verticalAlign=top;spacingLeft=4;spacingRight=4;overflow=hidden;rotatable=0;points=[[0,0.5],[1,0.5]];portConstraint=eastwest;whiteSpace=wrap;html=1;fontFamily=Helvetica;fontSize=12;fontStyle=1;horizontal=1;labelBackgroundColor=none;rounded=0;fontColor=#EEEEEE;" parent="vpXYMXgtCUjcUCC5rdgy-317" vertex="1">
          <mxGeometry y="78" width="270" height="26" as="geometry" />
        </mxCell>
        <mxCell id="vpXYMXgtCUjcUCC5rdgy-322" value="created_at" style="text;fillColor=none;align=left;verticalAlign=top;spacingLeft=4;spacingRight=4;overflow=hidden;rotatable=0;points=[[0,0.5],[1,0.5]];portConstraint=eastwest;whiteSpace=wrap;html=1;fontFamily=Helvetica;fontSize=12;fontStyle=1;horizontal=1;labelBackgroundColor=none;rounded=0;fontColor=#EEEEEE;" parent="vpXYMXgtCUjcUCC5rdgy-317" vertex="1">
          <mxGeometry y="104" width="270" height="26" as="geometry" />
        </mxCell>
        <mxCell id="vpXYMXgtCUjcUCC5rdgy-321" value="updated_at" style="text;fillColor=none;align=left;verticalAlign=top;spacingLeft=4;spacingRight=4;overflow=hidden;rotatable=0;points=[[0,0.5],[1,0.5]];portConstraint=eastwest;whiteSpace=wrap;html=1;fontFamily=Helvetica;fontSize=12;fontStyle=1;horizontal=1;labelBackgroundColor=none;rounded=0;fontColor=#EEEEEE;" parent="vpXYMXgtCUjcUCC5rdgy-317" vertex="1">
          <mxGeometry y="130" width="270" height="26" as="geometry" />
        </mxCell>
        <mxCell id="vpXYMXgtCUjcUCC5rdgy-333" value="" style="endArrow=none;html=1;rounded=0;fontFamily=Helvetica;fontSize=12;fontColor=default;fontStyle=1;horizontal=1;entryX=0.501;entryY=0.003;entryDx=0;entryDy=0;entryPerimeter=0;exitX=0.499;exitY=1.032;exitDx=0;exitDy=0;exitPerimeter=0;labelBackgroundColor=none;strokeColor=#0B4D6A;" parent="vpXYMXgtCUjcUCC5rdgy-317" source="vpXYMXgtCUjcUCC5rdgy-321" target="vpXYMXgtCUjcUCC5rdgy-318" edge="1">
          <mxGeometry width="50" height="50" relative="1" as="geometry">
            <mxPoint x="-100" y="170" as="sourcePoint" />
            <mxPoint x="-50" y="120" as="targetPoint" />
          </mxGeometry>
        </mxCell>
        <mxCell id="vpXYMXgtCUjcUCC5rdgy-325" value="INT" style="text;whiteSpace=wrap;html=1;fontFamily=Helvetica;fontSize=12;fontStyle=1;horizontal=1;labelBackgroundColor=none;rounded=0;fontColor=#EEEEEE;" parent="1" vertex="1">
          <mxGeometry x="733" y="-154" width="30" height="20" as="geometry" />
        </mxCell>
        <mxCell id="vpXYMXgtCUjcUCC5rdgy-326" value="INT" style="text;whiteSpace=wrap;html=1;fontFamily=Helvetica;fontSize=12;fontStyle=1;horizontal=1;labelBackgroundColor=none;rounded=0;fontColor=#EEEEEE;" parent="1" vertex="1">
          <mxGeometry x="735" y="-126" width="30" height="20" as="geometry" />
        </mxCell>
        <mxCell id="vpXYMXgtCUjcUCC5rdgy-327" value="VARCHAR" style="text;whiteSpace=wrap;html=1;fontFamily=Helvetica;fontSize=12;fontStyle=1;horizontal=1;labelBackgroundColor=none;rounded=0;fontColor=#EEEEEE;" parent="1" vertex="1">
          <mxGeometry x="735" y="-100" width="70" height="20" as="geometry" />
        </mxCell>
        <mxCell id="vpXYMXgtCUjcUCC5rdgy-328" value="TIMESTAMP" style="text;whiteSpace=wrap;html=1;fontFamily=Helvetica;fontSize=12;fontStyle=1;horizontal=1;labelBackgroundColor=none;rounded=0;fontColor=#EEEEEE;" parent="1" vertex="1">
          <mxGeometry x="735" y="-74" width="100" height="20" as="geometry" />
        </mxCell>
        <mxCell id="vpXYMXgtCUjcUCC5rdgy-329" value="TIMESTAMP" style="text;whiteSpace=wrap;html=1;fontFamily=Helvetica;fontSize=12;fontStyle=1;horizontal=1;labelBackgroundColor=none;rounded=0;fontColor=#EEEEEE;" parent="1" vertex="1">
          <mxGeometry x="735" y="-50" width="100" height="20" as="geometry" />
        </mxCell>
        <mxCell id="vpXYMXgtCUjcUCC5rdgy-330" value="PK" style="text;whiteSpace=wrap;html=1;fontFamily=Helvetica;fontSize=12;fontStyle=1;horizontal=1;labelBackgroundColor=none;rounded=0;fontColor=#EEEEEE;" parent="1" vertex="1">
          <mxGeometry x="810" y="-154" width="50" height="20" as="geometry" />
        </mxCell>
        <mxCell id="vpXYMXgtCUjcUCC5rdgy-332" value="FK" style="text;whiteSpace=wrap;html=1;fontFamily=Helvetica;fontSize=12;fontStyle=1;horizontal=1;labelBackgroundColor=none;rounded=0;fontColor=#EEEEEE;" parent="1" vertex="1">
          <mxGeometry x="810" y="-124" width="50" height="40" as="geometry" />
        </mxCell>
        <mxCell id="vpXYMXgtCUjcUCC5rdgy-334" value="" style="endArrow=none;html=1;rounded=0;fontFamily=Helvetica;fontSize=12;fontColor=default;fontStyle=1;horizontal=1;entryX=-0.03;entryY=-0.059;entryDx=0;entryDy=0;entryPerimeter=0;exitX=0.888;exitY=1.032;exitDx=0;exitDy=0;exitPerimeter=0;labelBackgroundColor=none;strokeColor=#0B4D6A;" parent="1" source="vpXYMXgtCUjcUCC5rdgy-321" target="vpXYMXgtCUjcUCC5rdgy-330" edge="1">
          <mxGeometry width="50" height="50" relative="1" as="geometry">
            <mxPoint x="470" y="-10" as="sourcePoint" />
            <mxPoint x="520" y="-60" as="targetPoint" />
          </mxGeometry>
        </mxCell>
        <mxCell id="vpXYMXgtCUjcUCC5rdgy-335" style="edgeStyle=orthogonalEdgeStyle;rounded=0;orthogonalLoop=1;jettySize=auto;html=1;exitX=0;exitY=0.5;exitDx=0;exitDy=0;entryX=1;entryY=0.5;entryDx=0;entryDy=0;fontFamily=Helvetica;fontSize=12;fontColor=default;fontStyle=1;horizontal=1;labelBackgroundColor=none;strokeColor=#0B4D6A;" parent="1" source="vpXYMXgtCUjcUCC5rdgy-324" target="vpXYMXgtCUjcUCC5rdgy-206" edge="1">
          <mxGeometry relative="1" as="geometry" />
        </mxCell>
        <mxCell id="vpXYMXgtCUjcUCC5rdgy-293" style="edgeStyle=orthogonalEdgeStyle;rounded=0;orthogonalLoop=1;jettySize=auto;html=1;entryX=1;entryY=0.5;entryDx=0;entryDy=0;fontFamily=Helvetica;fontSize=12;fontColor=default;fontStyle=1;horizontal=1;labelBackgroundColor=none;exitX=1;exitY=0.5;exitDx=0;exitDy=0;strokeColor=#0B4D6A;" parent="1" source="vpXYMXgtCUjcUCC5rdgy-281" target="vpXYMXgtCUjcUCC5rdgy-238" edge="1">
          <mxGeometry relative="1" as="geometry">
            <mxPoint x="1030" y="750" as="sourcePoint" />
            <mxPoint x="800" y="911" as="targetPoint" />
            <Array as="points">
              <mxPoint x="1080" y="601" />
              <mxPoint x="1080" y="670" />
              <mxPoint x="1100" y="670" />
              <mxPoint x="1100" y="857" />
              <mxPoint x="830" y="857" />
              <mxPoint x="830" y="906" />
              <mxPoint x="570" y="906" />
              <mxPoint x="570" y="904" />
            </Array>
          </mxGeometry>
        </mxCell>
        <mxCell id="gwUgAmilKei9Ad1AASg6-2" style="edgeStyle=orthogonalEdgeStyle;orthogonalLoop=1;jettySize=auto;html=1;exitX=0;exitY=1;exitDx=0;exitDy=0;entryX=0;entryY=0.75;entryDx=0;entryDy=0;labelBackgroundColor=none;fontColor=default;strokeColor=#0B4D6A;" parent="1" source="vpXYMXgtCUjcUCC5rdgy-309" target="vpXYMXgtCUjcUCC5rdgy-309" edge="1">
          <mxGeometry relative="1" as="geometry" />
        </mxCell>
      </root>
    </mxGraphModel>
  </diagram>
</mxfile>
